<?xml version="1.0" standalone="no"?>
<!DOCTYPE svg PUBLIC "-//W3C//DTD SVG 20010904//EN"
 "http://www.w3.org/TR/2001/REC-SVG-20010904/DTD/svg10.dtd">
<svg version="1.0" xmlns="http://www.w3.org/2000/svg"
 width="50.000000pt" height="50.000000pt" viewBox="0 0 50.000000 50.000000"
 preserveAspectRatio="xMidYMid meet">
<metadata>
Created by potrace 1.16, written by Peter Selinger 2001-2019
</metadata>
<g transform="translate(0.000000,50.000000) scale(0.100000,-0.100000)"
fill="#000000" stroke="none">
<path d="M420 478 c0 -17 -3 -19 -9 -10 -7 11 -9 11 -14 -2 -4 -9 -14 -14 -24
-11 -10 3 -4 -1 12 -9 17 -8 33 -12 38 -9 4 2 7 -5 7 -16 0 -10 -6 -22 -12
-24 -7 -3 -3 -6 9 -6 12 -1 25 -5 28 -11 4 -6 -14 -10 -46 -10 -51 0 -62 -10
-17 -15 13 -1 26 -3 31 -4 6 -1 11 -41 5 -41 -2 0 -21 7 -43 14 -36 13 -40 18
-43 50 -2 20 -7 34 -12 31 -5 -3 -11 -1 -15 5 -12 19 -25 10 -25 -18 0 -34
-23 -68 -38 -58 -7 4 -12 25 -12 46 0 39 -1 39 -25 28 -14 -6 -25 -16 -25 -21
0 -5 -9 -7 -20 -4 -11 3 -18 1 -14 -4 3 -5 0 -9 -5 -9 -18 0 -26 5 -23 13 1 5
-2 6 -8 2 -6 -4 -17 -1 -26 5 -11 10 -12 16 -3 26 9 11 8 14 -5 14 -9 0 -16
-4 -16 -9 0 -5 -8 -12 -17 -14 -14 -4 -12 -5 5 -6 20 -1 33 -21 14 -21 -4 0
-12 -15 -17 -32 -8 -26 -15 -32 -32 -31 -20 2 -23 -2 -23 -33 l0 -37 52 7 c55
8 71 20 64 49 -2 9 0 17 5 17 5 0 9 8 9 17 0 9 3 14 6 10 4 -3 13 0 21 8 15
16 33 20 33 8 0 -5 -7 -29 -15 -55 -14 -48 -14 -48 9 -48 22 0 24 -4 26 -62 2
-93 0 -118 -11 -118 -4 0 -10 8 -12 18 -4 16 -5 16 -6 0 -1 -20 -16 -24 -26
-7 -5 6 -12 4 -21 -8 -10 -14 -13 -15 -14 -4 0 11 -3 12 -11 4 -17 -17 -41 -4
-33 19 7 23 -23 55 -47 50 -19 -4 -29 -31 -29 -82 0 -26 3 -31 12 -22 13 13
51 16 62 5 10 -10 88 -11 108 -1 20 10 33 -18 17 -38 -9 -11 6 -13 85 -12 77
0 94 3 86 13 -16 20 0 24 68 20 l62 -4 0 30 c0 17 -4 28 -9 24 -5 -3 -12 -1
-16 5 -3 5 1 10 10 10 9 0 15 6 13 13 -3 6 -16 12 -29 12 -13 1 -30 5 -38 10
-10 5 -16 4 -19 -4 -4 -11 -6 -11 -12 0 -7 10 -14 10 -35 1 -14 -7 -23 -17
-20 -22 3 -6 1 -10 -4 -10 -7 0 -11 24 -11 60 0 36 4 60 11 60 5 0 7 5 3 12
-10 16 -12 58 -2 52 4 -3 8 -11 8 -17 0 -8 25 -13 75 -15 l75 -3 0 94 c0 76
-3 97 -17 108 -15 13 -16 11 -11 -13 3 -17 1 -25 -5 -21 -6 4 -8 0 -4 -11 4
-10 3 -15 -3 -11 -6 4 -9 28 -6 56 4 44 3 49 -15 49 -13 0 -19 -7 -19 -22z"/>
</g>
</svg>
