<svg version="1.1" id="Layer_1" xmlns="http://www.w3.org/2000/svg" xmlns:xlink="http://www.w3.org/1999/xlink" x="0px" y="0px"
	 width="100%" viewBox="0 0 568 439" enable-background="new 0 0 568 439" xml:space="preserve">
<path fill="#000000" opacity="1.000000" stroke="none" 
	d="
M352.000000,440.000000 
	C234.666687,440.000000 117.833389,440.000000 1.000063,440.000000 
	C1.000042,293.666718 1.000042,147.333466 1.000021,1.000141 
	C190.333237,1.000094 379.666473,1.000094 568.999756,1.000047 
	C568.999878,147.333191 568.999878,293.666382 568.999939,439.999786 
	C496.833344,440.000000 424.666656,440.000000 352.000000,440.000000 
M50.004364,189.014786 
	C50.004364,189.014786 50.046528,189.057648 50.672577,188.859863 
	C50.841972,188.236450 51.011372,187.613052 51.773392,186.752533 
	C51.908451,186.655243 52.031879,186.514145 52.182178,186.474213 
	C52.307064,186.441055 52.573685,186.498825 52.590351,186.564102 
	C53.755306,191.126038 56.862274,194.791061 61.193798,192.497040 
	C64.864105,190.553207 66.549072,190.109055 70.311943,192.280380 
	C72.904182,193.776184 77.341644,192.074203 81.498375,191.828766 
	C81.705482,191.540085 81.912582,191.251404 82.467896,190.976837 
	C82.467896,190.976837 82.816391,190.974075 83.307487,191.704880 
	C86.261978,191.742279 89.216461,191.779678 92.519913,191.921524 
	C92.519913,191.921524 92.868568,191.816055 93.809723,191.969345 
	C100.395538,192.211731 106.981354,192.454117 113.923935,192.709641 
	C113.695999,191.970001 113.247330,190.514145 112.941460,188.162186 
	C112.638809,185.110748 112.599815,182.004303 111.977150,179.019638 
	C110.779083,173.276794 109.196609,172.499237 103.548103,173.696793 
	C100.459564,174.351624 97.279594,174.575211 94.107079,174.924927 
	C94.107079,174.924927 94.034554,174.948441 93.920776,174.466019 
	C93.726685,174.117386 93.443153,174.013687 92.566528,174.008453 
	C92.394119,173.979370 92.221710,173.950272 91.649399,173.282974 
	C89.077515,174.171753 86.505630,175.060532 83.988327,175.980453 
	C83.988327,175.980453 83.974678,175.919098 83.495049,176.090454 
	C83.386147,176.384964 83.277245,176.679489 83.028168,177.725677 
	C83.073761,178.486465 83.119354,179.247253 83.073669,180.722153 
	C82.809517,182.882034 82.545364,185.041916 82.281204,187.201797 
	C81.458412,184.889679 81.821510,182.812744 81.949707,180.721420 
	C82.081924,178.564453 81.986839,176.393463 81.988892,174.228607 
	C81.996178,166.550568 80.242630,165.360519 72.338608,168.096573 
	C72.891701,169.536087 73.440750,170.965057 73.842804,172.011459 
	C71.012413,173.232590 68.421204,174.350540 65.590805,175.571671 
	C59.888596,171.866745 58.124157,171.913055 53.502407,176.155426 
	C49.044552,166.029373 48.339291,165.727402 32.994713,167.118958 
	C32.994713,174.385345 32.994713,181.595200 32.262203,189.010330 
	C29.815619,191.093216 30.940828,192.526810 33.381355,192.607315 
	C37.408073,192.740204 41.470520,192.385849 45.484985,191.940247 
	C46.729286,191.802124 47.866814,190.702057 49.008430,190.004883 
	C49.008430,190.004883 49.010090,190.063293 49.532349,189.921051 
	C49.709671,189.620422 49.886993,189.319794 50.004364,189.014786 
M346.813873,186.376678 
	C346.209656,186.193466 345.605438,186.010269 344.971313,184.993561 
	C344.971313,183.375992 344.971313,181.758423 344.971313,180.008331 
	C348.820679,180.963318 351.974548,187.586411 351.464478,192.629089 
	C345.707825,193.459763 345.529907,193.782639 347.531128,199.739120 
	C351.696075,200.894073 353.708984,198.970093 355.097931,195.143967 
	C357.109436,189.602966 359.496948,184.183487 361.998199,178.840485 
	C363.666260,175.277313 362.699219,173.944336 358.938354,173.995270 
	C354.348389,174.057449 349.756897,174.010056 345.554840,174.010056 
	C344.219940,171.103897 346.638824,166.789658 341.805237,166.978729 
	C340.736359,168.845306 339.871887,170.354950 338.277069,171.733215 
	C335.779083,170.690613 338.663239,165.357025 333.333191,166.054672 
	C332.990570,166.086945 332.647949,166.119217 331.459747,166.047318 
	C331.322723,168.073990 331.185730,170.100647 331.055878,172.560028 
	C331.055878,172.560028 331.022369,172.991486 330.420746,173.235870 
	C328.617371,173.212280 326.813965,173.188690 324.224243,173.030563 
	C319.139923,173.407776 314.055603,173.784973 308.206116,174.034637 
	C306.474091,174.624725 304.742065,175.214828 302.698639,175.207230 
	C301.127045,174.531830 299.555420,173.856430 297.258484,173.069626 
	C290.647064,173.512726 284.035614,173.955841 277.496155,174.394119 
	C276.472839,165.860764 276.472839,165.860764 271.221741,166.257706 
	C269.681396,169.483490 268.331482,172.310516 266.293243,174.786331 
	C264.581757,174.189682 262.879608,173.142029 261.156525,173.106400 
	C258.814209,173.057999 256.455902,173.783173 253.302811,174.086151 
	C253.209717,177.102463 253.091675,180.118286 253.030609,183.135239 
	C252.971130,186.074234 252.969925,189.014389 252.943130,191.954041 
	C255.955734,191.961243 258.968353,191.972778 261.980957,191.974716 
	C267.281525,191.978119 272.582092,191.975662 277.575653,191.975662 
	C277.320892,188.117828 277.052338,184.051285 277.186249,179.494492 
	C279.332855,184.002899 281.479462,188.511307 284.173340,194.169128 
	C286.802795,189.457550 288.940918,185.626343 291.717010,182.307236 
	C291.869446,184.222916 292.021851,186.138580 292.183350,188.577637 
	C292.461517,188.782898 292.739685,188.988159 293.003906,189.400085 
	C293.003906,189.400085 293.143005,189.553513 292.969910,190.391388 
	C293.406464,190.943848 293.835419,191.970413 294.280640,191.977524 
	C300.769592,192.081299 307.260712,192.048767 313.864685,192.048767 
	C311.779633,183.408691 312.934937,181.052109 318.978302,181.795074 
	C318.979645,182.815903 318.980957,183.836731 318.214722,185.013412 
	C315.714844,188.133514 317.718506,192.355453 319.587860,192.506348 
	C325.544189,192.987122 331.626160,191.936111 337.652802,191.399780 
	C337.835022,191.383560 337.941345,190.514236 338.447998,190.004990 
	C338.447998,190.004990 338.812775,189.965424 338.973114,190.796494 
	C341.661469,190.875732 344.349823,190.954987 346.998779,191.001221 
	C346.998779,191.001221 347.034943,191.039337 347.693726,190.755051 
	C347.473389,189.490036 347.253052,188.225021 346.997894,186.997040 
	C346.997894,186.997040 347.044220,186.976837 346.813873,186.376678 
M429.022186,176.263672 
	C428.355804,175.808395 427.689423,175.353119 426.995239,174.947586 
	C426.995239,174.947586 427.039581,174.913940 426.698730,174.237183 
	C424.904633,173.615463 423.110504,172.993744 421.215057,172.336899 
	C420.590424,170.540771 419.905853,168.572388 419.360809,167.005051 
	C414.354126,167.005051 409.719666,166.802856 405.117004,167.097626 
	C403.076233,167.228302 399.843903,167.872986 399.348083,169.142120 
	C398.215546,172.041077 398.611328,175.388840 402.640930,176.953598 
	C403.553192,175.299805 404.329315,173.892761 405.105438,172.485718 
	C406.000336,176.328445 406.155762,179.937851 405.941681,183.525223 
	C405.814636,185.654419 407.406830,188.731949 403.468323,189.421921 
	C403.277740,189.455307 402.991272,191.108353 403.334808,191.528442 
	C403.883667,192.199585 404.964417,192.904617 405.749786,192.832092 
	C409.092987,192.523346 412.410309,191.934097 415.791351,191.439301 
	C412.548096,184.989548 414.363739,178.592743 415.090485,172.223984 
	C416.053314,174.789764 415.806091,177.406464 416.124542,179.952377 
	C416.427734,182.376205 417.321564,184.726151 417.994446,187.870758 
	C419.987061,192.603302 423.426331,193.283447 428.597778,189.834702 
	C429.087067,189.249817 429.576385,188.664948 430.731934,188.257095 
	C432.082733,190.159241 433.433502,192.061386 434.784302,193.963531 
	C435.151978,193.593201 435.519653,193.222870 435.887299,192.852539 
	C437.289764,192.172440 438.692230,191.492325 440.825500,191.247604 
	C441.082306,191.449677 441.338287,191.827362 441.596008,191.828506 
	C452.507935,191.877335 463.420258,191.921448 474.331421,191.831741 
	C474.912689,191.826965 475.484375,190.658707 476.722504,190.358505 
	C479.103973,191.118210 481.480957,192.445328 483.868256,192.464035 
	C485.899506,192.479965 487.942535,190.988571 490.425568,190.789078 
	C492.907532,190.491516 495.389496,190.193939 498.590027,190.086685 
	C500.400482,191.006561 502.210968,191.926453 504.669708,192.970047 
	C505.105316,192.925980 505.540924,192.881912 506.558868,192.834549 
	C507.052216,192.262238 507.545563,191.689926 508.713104,191.002182 
	C509.700745,190.468063 510.688385,189.933945 512.176392,189.129242 
	C512.300720,190.914322 512.799255,192.532257 512.439514,193.929123 
	C511.290527,198.390427 514.583618,201.112274 517.333008,200.433380 
	C523.188049,198.987686 530.137390,201.263077 535.673645,195.785843 
	C538.092041,189.389786 540.574890,183.015762 542.784729,176.548447 
	C542.933228,176.113754 541.017822,174.973862 539.615601,174.022644 
	C539.615601,174.022644 539.152405,173.956619 538.674194,173.248169 
	C533.159058,173.495865 527.643921,173.743561 521.683411,173.330246 
	C519.934387,173.312683 517.474365,172.547455 516.564697,173.412537 
	C513.361023,176.459137 510.337280,175.199158 506.721619,173.317032 
	C505.125977,173.522202 503.530365,173.727371 502.005951,173.942535 
	C502.005951,173.942535 501.944977,173.903519 501.270966,173.951996 
	C500.265869,174.564880 499.260803,175.177780 497.972504,175.963364 
	C497.972504,173.640366 497.846863,171.637543 498.000153,169.656311 
	C498.272217,166.139969 496.410156,166.305267 493.341858,167.048447 
	C492.879456,167.084885 492.417084,167.121323 491.223907,167.043854 
	C486.477478,168.194077 489.484283,169.730835 491.015411,171.801559 
	C491.066101,172.201553 491.116791,172.601562 491.033417,173.857925 
	C491.033417,176.196091 491.033417,178.534256 491.033417,179.515472 
	C488.662964,177.540405 486.274445,174.543732 483.171936,173.218109 
	C479.228851,171.533356 476.189270,173.844406 474.883881,178.848618 
	C473.044189,174.658463 471.701080,170.903748 465.996826,173.985046 
	C463.450104,173.985046 460.903412,173.985046 458.446320,173.985046 
	C458.245972,175.605545 458.116882,176.649689 457.927887,176.882629 
	C457.015381,175.929123 456.102844,174.975616 454.768219,173.368088 
	C453.496948,173.223572 452.225708,173.079056 451.003326,173.087769 
	C451.003326,173.087769 451.162872,173.067337 451.035583,172.198975 
	C450.976318,165.425125 450.096222,164.873795 443.070374,166.440826 
	C443.070374,170.441406 443.070374,174.226730 442.984802,177.320099 
	C441.701324,176.197083 440.417877,175.074066 438.745972,173.299683 
	C437.133362,173.510925 435.520721,173.722168 433.972351,173.941696 
	C433.972351,173.941696 433.949799,173.880981 433.252991,173.962891 
	C432.454742,174.954895 431.656494,175.946884 430.949005,177.012344 
	C430.949005,177.012344 430.870331,176.934875 430.482422,176.999191 
	C430.482422,176.999191 430.112885,177.137009 429.584656,176.997299 
	C429.405029,176.967102 429.225403,176.936920 429.041473,176.974472 
	C429.041473,176.974472 429.109314,176.971542 429.022186,176.263672 
M176.952469,184.988876 
	C176.952469,184.988876 176.949127,184.904846 176.359207,185.190292 
	C175.907852,184.929993 175.109573,184.724625 175.058319,184.400970 
	C174.484344,180.775940 176.683014,176.394653 171.640060,173.249222 
	C168.786179,173.469589 165.932281,173.689941 162.589600,173.238464 
	C159.229721,173.238464 155.869843,173.238464 152.169586,173.238464 
	C152.117844,172.834122 152.092987,172.025085 151.903519,171.256653 
	C150.439575,165.319489 149.697296,165.043457 143.740524,166.462662 
	C139.864822,167.386047 135.850693,168.195114 131.898392,168.196060 
	C128.120758,168.196960 124.342850,167.085999 120.565063,166.463776 
	C120.215584,167.029388 119.866112,167.594986 119.516632,168.160599 
	C120.638412,169.455017 121.760185,170.749420 122.975044,172.969391 
	C122.518631,179.026642 124.227005,185.223831 121.255638,191.844879 
	C123.848587,191.844879 125.909401,191.844879 128.651001,191.969910 
	C129.714096,191.651581 130.777206,191.333252 132.363464,191.728531 
	C138.588150,191.746078 144.812851,191.763611 151.679779,191.916061 
	C152.113495,191.886398 152.547211,191.856735 153.915710,191.956497 
	C157.032654,191.970352 160.156113,192.117737 163.264938,191.965759 
	C167.568237,191.755356 171.860535,191.319778 176.505920,190.996017 
	C176.505920,190.996017 176.853790,191.020309 177.070175,191.513290 
	C177.384583,191.618881 177.698975,191.724472 178.913818,191.961792 
	C181.059418,191.974152 183.209244,191.906036 185.349594,192.018326 
	C188.320831,192.174225 190.548965,191.391312 191.672119,188.276062 
	C192.505875,189.428391 193.339630,190.580704 194.182556,192.493515 
	C195.472260,192.343307 196.761963,192.193085 197.994156,192.017365 
	C197.994156,192.017365 198.036743,192.064301 198.968643,192.042068 
	C206.442215,192.676590 213.912628,193.353592 221.392166,193.907562 
	C222.786102,194.010803 224.216644,193.619751 225.630295,193.456818 
	C225.122559,191.921082 224.614807,190.385345 224.016159,187.974823 
	C224.228256,185.197876 224.701233,182.410416 224.589935,179.646484 
	C224.432068,175.726105 224.148712,171.749115 223.230545,167.963287 
	C222.993607,166.986298 220.211807,166.330414 218.540970,166.182388 
	C218.055984,166.139450 216.838028,168.389465 216.879059,169.555893 
	C216.985489,172.581467 216.831070,174.924332 212.209229,173.748886 
	C211.125290,172.995239 209.221832,172.363159 209.089096,171.468399 
	C208.157043,165.186005 203.986923,165.476273 199.155655,166.348297 
	C199.499039,167.566406 199.837341,168.766449 200.093643,170.509949 
	C200.388321,170.701889 200.682983,170.893845 200.993301,171.003632 
	C200.993301,171.003632 200.911148,170.988083 200.877853,171.712555 
	C199.910461,172.054794 198.943085,172.397018 198.251434,172.137222 
	C197.657196,170.766220 197.062973,169.395218 196.468735,168.024216 
	C195.277161,168.886734 193.949493,169.616028 192.935226,170.652115 
	C192.053696,171.552582 191.526596,172.800018 190.154190,173.915924 
	C189.456482,174.415527 188.758789,174.915146 188.062347,175.413849 
	C185.401169,170.824570 181.490067,172.893066 178.380585,174.152740 
	C175.518585,175.312164 175.261642,178.242432 176.945114,181.808487 
	C176.919540,182.869659 176.893982,183.930817 176.952469,184.988876 
M233.030334,183.836029 
	C233.362442,185.252396 233.572433,186.711456 234.049957,188.076965 
	C235.384766,191.893921 238.920151,195.840332 244.028885,194.973663 
	C248.408890,194.230621 250.964630,191.221649 250.945862,186.143661 
	C250.936630,183.645142 250.835388,181.143433 250.930313,178.649033 
	C251.036255,175.864227 249.823257,172.641357 253.448593,170.809219 
	C253.689270,170.687592 252.554642,166.392746 251.996552,166.377670 
	C248.339340,166.278915 244.664734,166.824173 240.114838,167.034805 
	C237.104828,167.218857 234.094818,167.402924 232.136246,167.522690 
	C232.535110,173.579285 232.847321,178.320068 233.030334,183.836029 
M372.723450,191.898666 
	C376.344604,194.187332 379.264557,192.830933 381.279846,190.501297 
	C385.301392,191.434357 388.794952,192.244904 392.936096,193.205688 
	C392.635773,191.535400 392.405670,190.662872 392.331665,189.777298 
	C391.881805,184.393967 391.020752,178.991226 394.506104,174.089218 
	C395.598175,172.553223 397.105530,170.247589 396.635376,168.933990 
	C396.041412,167.274490 393.614258,165.236374 391.987152,165.244431 
	C389.971252,165.254395 387.336243,166.733688 386.106567,168.411972 
	C384.401276,170.739395 383.754761,173.842590 382.628235,176.680862 
	C377.425446,172.504410 373.473663,171.947418 370.616577,174.860947 
	C366.670258,178.885223 367.402496,187.433487 372.723450,191.898666 
z"/>
<path fill="#BB9216" opacity="1.000000" stroke="none" 
	d="
M80.954430,191.801392 
	C77.341644,192.074203 72.904182,193.776184 70.311943,192.280380 
	C66.549072,190.109055 64.864105,190.553207 61.193798,192.497040 
	C56.862274,194.791061 53.755306,191.126038 52.590351,186.564102 
	C52.573685,186.498825 52.307064,186.441055 52.182178,186.474213 
	C52.031879,186.514145 51.908451,186.655243 51.248581,187.079132 
	C50.498028,187.956375 50.272282,188.507019 50.046532,189.057648 
	C50.046528,189.057648 50.004364,189.014786 49.821266,189.150360 
	C49.428802,189.545059 49.219444,189.804169 49.010086,190.063293 
	C49.010090,190.063293 49.008430,190.004883 48.607956,190.023132 
	C46.274239,190.342621 44.291805,191.067734 42.418747,190.850357 
	C39.241077,190.481598 36.132393,189.518402 32.994713,188.805054 
	C32.994713,181.595200 32.994713,174.385345 32.994713,167.118958 
	C48.339291,165.727402 49.044552,166.029373 53.502407,176.155426 
	C58.124157,171.913055 59.888596,171.866745 65.590805,175.571671 
	C68.421204,174.350540 71.012413,173.232590 73.842804,172.011459 
	C73.440750,170.965057 72.891701,169.536087 72.338608,168.096573 
	C80.242630,165.360519 81.996178,166.550568 81.988892,174.228607 
	C81.986839,176.393463 82.081924,178.564453 81.949707,180.721420 
	C81.821510,182.812744 81.458412,184.889679 82.281204,187.201797 
	C82.545364,185.041916 82.809517,182.882034 83.412918,180.476776 
	C84.085861,181.919510 84.280670,183.650864 84.789406,185.284454 
	C85.386726,187.202484 86.256783,189.035583 86.590622,190.922546 
	C85.053932,190.951080 83.935158,190.962585 82.816391,190.974075 
	C82.816391,190.974075 82.467896,190.976837 82.090881,191.098358 
	C81.444878,191.393021 81.191727,191.586853 80.954430,191.801392 
M44.936539,176.096771 
	C44.116051,174.665695 43.295563,173.234619 41.970863,170.924118 
	C39.039284,177.409225 39.420784,182.614273 41.594810,187.795563 
	C42.125271,187.861084 42.655731,187.926590 43.186188,187.992111 
	C43.783791,184.304733 44.381393,180.617355 44.936539,176.096771 
z"/>
<path fill="#BB9012" opacity="1.000000" stroke="none" 
	d="
M505.976532,192.837860 
	C505.540924,192.881912 505.105316,192.925980 504.230682,192.590881 
	C501.209747,188.908691 497.848114,185.838150 499.070892,181.050262 
	C499.700714,178.584183 500.966522,176.280548 501.944946,173.903503 
	C501.944977,173.903519 502.005951,173.942535 502.401306,173.961838 
	C504.240417,173.971207 505.684143,173.961273 507.127869,173.951355 
	C510.337280,175.199158 513.361023,176.459137 516.564697,173.412537 
	C517.474365,172.547455 519.934387,173.312683 522.253418,173.837646 
	C527.485168,176.225800 534.724609,172.064758 537.006287,180.384476 
	C537.721680,178.241852 538.437012,176.099243 539.152405,173.956619 
	C539.152405,173.956619 539.615601,174.022644 539.970581,174.401215 
	C540.144226,176.176590 540.123901,177.617706 539.753723,178.962509 
	C538.199341,184.609589 536.540283,190.227844 534.919556,195.856659 
	C530.137390,201.263077 523.188049,198.987686 517.333008,200.433380 
	C514.583618,201.112274 511.290527,198.390427 512.439514,193.929123 
	C512.799255,192.532257 512.300720,190.914322 512.176392,189.129242 
	C510.688385,189.933945 509.700745,190.468063 508.113098,191.146973 
	C507.000885,191.807144 506.488708,192.322495 505.976532,192.837860 
M524.423157,184.151260 
	C522.352478,185.483643 520.281799,186.816010 517.062073,188.887772 
	C519.546753,188.887772 520.945435,188.676376 522.246826,188.941925 
	C523.831360,189.265259 525.395691,189.863022 526.856445,190.573151 
	C528.687134,191.463104 530.403625,192.587738 532.169434,193.611099 
	C532.590576,193.095520 533.011719,192.579956 533.432861,192.064377 
	C531.743225,188.014969 530.053589,183.965546 528.071045,179.214157 
	C526.775146,181.283630 525.935974,182.623840 524.423157,184.151260 
M505.009216,185.546814 
	C505.009216,186.336685 505.009216,187.126541 505.009216,187.916412 
	C505.237305,187.918015 505.465393,187.919617 505.693481,187.921234 
	C505.693481,186.296707 505.693481,184.672180 505.693481,183.047653 
	C505.555267,183.036789 505.417084,183.025925 505.278870,183.015060 
	C505.189545,183.633377 505.100189,184.251678 505.009216,185.546814 
z"/>
<path fill="#BB9216" opacity="1.000000" stroke="none" 
	d="
M338.812775,189.965424 
	C338.812775,189.965424 338.447998,190.004990 338.240448,189.610260 
	C337.853455,187.307831 337.674011,185.400131 337.494568,183.492447 
	C335.055664,191.826569 334.251678,192.452057 329.949402,188.446762 
	C329.692078,184.682663 329.398193,181.362747 328.840912,177.849289 
	C327.388519,176.158859 326.199554,174.661987 325.010590,173.165100 
	C326.813965,173.188690 328.617371,173.212280 331.054810,173.250839 
	C333.107452,173.504074 334.526001,173.742325 336.281006,173.940063 
	C337.414093,173.221237 338.210754,172.542923 339.007416,171.864594 
	C339.871887,170.354950 340.736359,168.845306 341.805237,166.978729 
	C346.638824,166.789658 344.219940,171.103897 345.554840,174.010056 
	C349.756897,174.010056 354.348389,174.057449 358.938354,173.995270 
	C362.699219,173.944336 363.666260,175.277313 361.998199,178.840485 
	C359.496948,184.183487 357.109436,189.602966 355.097931,195.143967 
	C353.708984,198.970093 351.696075,200.894073 347.531128,199.739120 
	C345.529907,193.782639 345.707825,193.459763 351.464478,192.629089 
	C351.974548,187.586411 348.820679,180.963318 344.971313,180.008331 
	C344.971313,181.758423 344.971313,183.375992 345.180054,185.646515 
	C345.940613,186.525269 346.492432,186.751053 347.044220,186.976837 
	C347.044220,186.976837 346.997894,186.997040 346.979736,187.385529 
	C346.986023,188.862442 347.010468,189.950897 347.034943,191.039337 
	C347.034943,191.039337 346.998779,191.001221 346.598663,190.989792 
	C343.736633,190.640717 341.274689,190.303070 338.812775,189.965424 
z"/>
<path fill="#B9901B" opacity="1.000000" stroke="none" 
	d="
M372.381958,191.691254 
	C367.402496,187.433487 366.670258,178.885223 370.616577,174.860947 
	C373.473663,171.947418 377.425446,172.504410 382.628235,176.680862 
	C383.754761,173.842590 384.401276,170.739395 386.106567,168.411972 
	C387.336243,166.733688 389.971252,165.254395 391.987152,165.244431 
	C393.614258,165.236374 396.041412,167.274490 396.635376,168.933990 
	C397.105530,170.247589 395.598175,172.553223 394.506104,174.089218 
	C391.020752,178.991226 391.881805,184.393967 392.331665,189.777298 
	C392.405670,190.662872 392.635773,191.535400 392.936096,193.205688 
	C388.794952,192.244904 385.301392,191.434357 381.279846,190.501297 
	C379.264557,192.830933 376.344604,194.187332 372.381958,191.691254 
z"/>
<path fill="#BB9012" opacity="1.000000" stroke="none" 
	d="
M190.842865,173.894119 
	C191.526596,172.800018 192.053696,171.552582 192.935226,170.652115 
	C193.949493,169.616028 195.277161,168.886734 196.468735,168.024216 
	C197.062973,169.395218 197.657196,170.766220 198.300781,172.755829 
	C198.460220,175.355133 199.071747,177.470673 198.582428,179.290146 
	C197.325577,183.963531 197.668472,185.769592 202.520691,188.641571 
	C201.931320,182.177246 201.421234,176.582672 200.911148,170.988083 
	C200.911148,170.988083 200.993301,171.003632 200.885712,170.835632 
	C200.615143,170.401413 200.414322,170.167694 200.175644,169.966492 
	C199.837341,168.766449 199.499039,167.566406 199.155655,166.348297 
	C203.986923,165.476273 208.157043,165.186005 209.089096,171.468399 
	C209.221832,172.363159 211.125290,172.995239 212.604858,174.353912 
	C213.646301,179.663452 214.292099,184.367935 214.946640,189.370453 
	C214.956985,190.066162 214.958557,190.463852 214.496735,190.889893 
	C209.321716,190.870956 204.610092,190.823685 199.721832,190.700562 
	C199.052856,190.692230 198.560532,190.759735 198.035400,191.135864 
	C198.013962,191.651093 198.025345,191.857697 198.036743,192.064301 
	C198.036743,192.064301 197.994156,192.017365 197.638947,191.964432 
	C196.246948,191.852020 195.210175,191.792526 194.173386,191.733032 
	C193.339630,190.580704 192.505875,189.428391 191.284775,187.806732 
	C188.424911,182.866272 190.208359,178.377869 190.842865,173.894119 
M207.954865,188.434036 
	C207.954865,188.434036 208.020828,188.438095 207.954865,188.434036 
z"/>
<path fill="#B9901B" opacity="1.000000" stroke="none" 
	d="
M417.955688,187.108566 
	C417.321564,184.726151 416.427734,182.376205 416.124542,179.952377 
	C415.806091,177.406464 416.053314,174.789764 415.090485,172.223984 
	C414.363739,178.592743 412.548096,184.989548 415.791351,191.439301 
	C412.410309,191.934097 409.092987,192.523346 405.749786,192.832092 
	C404.964417,192.904617 403.883667,192.199585 403.334808,191.528442 
	C402.991272,191.108353 403.277740,189.455307 403.468323,189.421921 
	C407.406830,188.731949 405.814636,185.654419 405.941681,183.525223 
	C406.155762,179.937851 406.000336,176.328445 405.105438,172.485718 
	C404.329315,173.892761 403.553192,175.299805 402.640930,176.953598 
	C398.611328,175.388840 398.215546,172.041077 399.348083,169.142120 
	C399.843903,167.872986 403.076233,167.228302 405.117004,167.097626 
	C409.719666,166.802856 414.354126,167.005051 419.360809,167.005051 
	C419.905853,168.572388 420.590424,170.540771 421.215057,172.336899 
	C423.110504,172.993744 424.904633,173.615463 426.575806,174.637512 
	C425.241730,176.523590 424.030548,178.009308 422.637238,179.718430 
	C422.140930,178.010086 421.755585,176.683655 421.247772,174.935654 
	C416.792511,178.495361 418.403900,183.073593 417.955688,187.108566 
z"/>
<path fill="#B9901B" opacity="1.000000" stroke="none" 
	d="
M466.928406,173.922516 
	C471.701080,170.903748 473.044189,174.658463 474.883881,178.848618 
	C476.189270,173.844406 479.228851,171.533356 483.171936,173.218109 
	C486.274445,174.543732 488.662964,177.540405 491.033417,179.515472 
	C491.033417,178.534256 491.033417,176.196091 491.369873,173.611816 
	C492.127197,176.864365 492.992523,180.386993 492.805603,183.852844 
	C492.689758,186.001114 490.976532,188.063248 489.980347,190.164062 
	C487.942535,190.988571 485.899506,192.479965 483.868256,192.464035 
	C481.480957,192.445328 479.103973,191.118210 476.045471,190.185410 
	C474.906677,190.003601 474.444916,189.994888 473.843445,189.658203 
	C473.427246,186.750381 473.029846,184.176514 472.902466,181.589340 
	C472.707703,177.632538 471.952332,174.247742 466.992981,174.025391 
	C466.971497,173.991074 466.928406,173.922516 466.928406,173.922516 
z"/>
<path fill="#B9901B" opacity="1.000000" stroke="none" 
	d="
M291.079041,181.795135 
	C288.940918,185.626343 286.802795,189.457550 284.173340,194.169128 
	C281.479462,188.511307 279.332855,184.002899 276.817932,179.763641 
	C276.449646,180.032791 276.115356,180.079269 275.921204,179.820953 
	C274.968750,178.645157 274.210480,177.727692 273.055847,176.330627 
	C272.166046,178.820511 271.531158,180.597168 270.918793,182.310699 
	C269.426453,179.591812 268.204010,177.364685 266.981567,175.137543 
	C268.331482,172.310516 269.681396,169.483490 271.221741,166.257706 
	C276.472839,165.860764 276.472839,165.860764 277.496155,174.394119 
	C284.035614,173.955841 290.647064,173.512726 297.475891,173.414795 
	C295.488586,176.438339 293.283813,179.116745 291.079041,181.795135 
z"/>
<path fill="#BB9216" opacity="1.000000" stroke="none" 
	d="
M94.140854,174.993286 
	C97.279594,174.575211 100.459564,174.351624 103.548103,173.696793 
	C109.196609,172.499237 110.779083,173.276794 111.977150,179.019638 
	C112.599815,182.004303 112.638809,185.110748 112.604401,188.872437 
	C106.840858,189.897461 101.414375,190.212250 95.954964,190.232178 
	C95.328300,184.955963 94.734581,179.974609 94.140854,174.993286 
z"/>
<path fill="#BB9216" opacity="1.000000" stroke="none" 
	d="
M266.637390,174.961945 
	C268.204010,177.364685 269.426453,179.591812 270.918793,182.310699 
	C271.531158,180.597168 272.166046,178.820511 273.055847,176.330627 
	C274.210480,177.727692 274.968750,178.645157 275.907288,180.183609 
	C276.069214,181.533829 276.050842,182.263062 275.786377,183.117096 
	C275.684418,184.162109 275.828461,185.082352 275.995056,186.372498 
	C276.026489,187.483231 276.035400,188.224030 275.876770,189.189453 
	C275.470642,189.914398 275.232086,190.414734 274.644287,190.904480 
	C273.167114,190.635757 272.039154,190.377609 271.008026,189.845459 
	C270.706604,188.881424 270.308380,188.191437 269.910126,187.501450 
	C268.933380,188.628098 267.956604,189.754730 266.519348,190.902344 
	C263.241730,190.931961 260.384277,191.217148 257.627228,190.814545 
	C256.508911,190.651230 254.853195,189.068466 254.741516,187.996246 
	C254.264603,183.417252 254.273056,178.787689 254.104446,174.176575 
	C256.455902,173.783173 258.814209,173.057999 261.156525,173.106400 
	C262.879608,173.142029 264.581757,174.189682 266.637390,174.961945 
z"/>
<path fill="#BB9012" opacity="1.000000" stroke="none" 
	d="
M324.617432,173.097839 
	C326.199554,174.661987 327.388519,176.158859 328.796082,178.201721 
	C328.677704,180.068192 328.340820,181.388672 327.772766,182.999969 
	C327.429260,184.578094 327.191772,185.868988 327.228455,187.152039 
	C327.329590,190.692383 325.170258,191.287369 322.376251,190.903015 
	C318.679535,190.394440 319.007507,187.497482 318.982300,184.857559 
	C318.980957,183.836731 318.979645,182.815903 318.758728,181.119003 
	C315.242767,178.057587 312.985046,178.774200 312.034729,182.764648 
	C311.614380,184.529816 311.668304,186.410477 311.219788,188.165344 
	C310.979279,189.106232 310.243256,190.458435 309.526215,190.601837 
	C308.651855,190.776688 307.188690,190.150223 306.633423,189.391983 
	C304.659058,186.695801 306.345367,176.574203 308.971283,174.162170 
	C314.055603,173.784973 319.139923,173.407776 324.617432,173.097839 
z"/>
<path fill="#B18F2A" opacity="1.000000" stroke="none" 
	d="
M152.980927,191.827072 
	C152.547211,191.856735 152.113495,191.886398 151.338577,191.608459 
	C150.997375,191.300842 150.962189,190.820145 151.082001,190.512909 
	C150.604431,184.191818 151.213821,177.820190 146.447067,172.998596 
	C147.073303,171.453949 147.393021,170.043915 147.712738,168.633865 
	C146.787033,169.455811 145.861343,170.277756 144.563965,171.060562 
	C139.335312,172.036179 136.253784,174.658020 135.787384,179.863617 
	C133.112885,177.385315 130.642532,175.092987 128.473846,172.544006 
	C127.429756,171.316833 126.954475,169.605728 126.221619,168.113770 
	C125.108398,169.423782 123.995178,170.733810 122.881958,172.043839 
	C121.760185,170.749420 120.638412,169.455017 119.516632,168.160599 
	C119.866112,167.594986 120.215584,167.029388 120.565063,166.463776 
	C124.342850,167.085999 128.120758,168.196960 131.898392,168.196060 
	C135.850693,168.195114 139.864822,167.386047 143.740524,166.462662 
	C149.697296,165.043457 150.439575,165.319489 151.903519,171.256653 
	C152.092987,172.025085 152.117844,172.834122 152.169586,173.238464 
	C155.869843,173.238464 159.229721,173.238464 162.796295,173.631668 
	C163.002975,174.024872 162.927734,174.139557 162.533173,174.144775 
	C160.177429,174.458344 158.105667,174.481155 156.296402,175.181793 
	C155.204910,175.604477 153.814590,177.055374 153.777863,178.087646 
	C153.625763,182.361252 153.938477,186.651382 153.890656,191.075653 
	C153.449966,191.406723 153.209991,191.610474 152.980927,191.827072 
z"/>
<path fill="#BB9216" opacity="1.000000" stroke="none" 
	d="
M190.498535,173.905029 
	C190.208359,178.377869 188.424911,182.866272 190.989761,187.704712 
	C190.548965,191.391312 188.320831,192.174225 185.349594,192.018326 
	C183.209244,191.906036 181.059418,191.974152 178.284424,191.740860 
	C177.409393,191.318970 177.142319,191.152435 176.853790,191.020309 
	C176.853790,191.020309 176.505920,190.996017 176.236343,190.959900 
	C175.966766,190.923798 175.773651,190.882782 175.608032,190.782379 
	C174.944016,190.764359 174.445602,190.846725 173.617798,190.910675 
	C172.849167,190.868790 172.409927,190.845322 172.114075,190.582413 
	C172.843231,189.885239 173.429016,189.427521 174.343567,188.867966 
	C175.431259,187.479019 176.190201,186.191940 176.949127,184.904846 
	C176.949127,184.904846 176.952469,184.988876 177.153976,184.825607 
	C177.185501,183.447617 177.015533,182.232895 176.845566,181.018173 
	C175.261642,178.242432 175.518585,175.312164 178.380585,174.152740 
	C181.490067,172.893066 185.401169,170.824570 188.062347,175.413849 
	C188.758789,174.915146 189.456482,174.415527 190.498535,173.905029 
z"/>
<path fill="#B18F2A" opacity="1.000000" stroke="none" 
	d="
M240.995819,167.159119 
	C244.664734,166.824173 248.339340,166.278915 251.996552,166.377670 
	C252.554642,166.392746 253.689270,170.687592 253.448593,170.809219 
	C249.823257,172.641357 251.036255,175.864227 250.930313,178.649033 
	C250.835388,181.143433 250.936630,183.645142 250.945862,186.143661 
	C250.964630,191.221649 248.408890,194.230621 244.028885,194.973663 
	C238.920151,195.840332 235.384766,191.893921 234.049957,188.076965 
	C233.572433,186.711456 233.362442,185.252396 233.379227,183.613495 
	C234.581604,184.925812 235.074066,186.999619 236.372879,187.869644 
	C238.338181,189.186096 240.832184,189.802231 243.185745,190.361465 
	C243.572769,190.453415 244.390869,188.731110 245.177948,187.507202 
	C247.853470,181.185638 248.098068,175.304474 244.300140,169.467697 
	C243.147461,171.742416 242.205933,174.075638 242.032120,176.464722 
	C241.756790,180.248840 241.995270,184.070358 241.706085,187.668549 
	C240.936234,185.945251 240.055954,184.419052 240.093079,182.915527 
	C240.222946,177.659164 240.669540,172.410629 240.995819,167.159119 
z"/>
<path fill="#BE900A" opacity="1.000000" stroke="none" 
	d="
M122.928497,172.506622 
	C123.995178,170.733810 125.108398,169.423782 126.221619,168.113770 
	C126.954475,169.605728 127.429756,171.316833 128.473846,172.544006 
	C130.642532,175.092987 133.112885,177.385315 135.761017,179.878479 
	C136.062805,179.973801 136.045624,179.915939 136.075348,180.245728 
	C136.687347,181.467453 137.269608,182.359375 137.916138,183.397308 
	C137.980392,183.543320 138.023575,183.859436 138.143082,184.141541 
	C138.865936,184.938858 139.469284,185.454071 140.040192,185.967499 
	C140.007751,185.965698 140.062286,185.930344 140.067078,186.293335 
	C140.406357,187.825378 140.740829,188.994431 140.699448,190.167633 
	C139.572006,190.158325 138.820419,190.144867 137.880112,190.244537 
	C137.445587,190.517899 137.213501,190.696014 136.676422,190.878540 
	C135.933350,190.849396 135.508957,190.833725 134.978912,190.563080 
	C133.750320,187.924591 132.627411,185.541046 131.504501,183.157501 
	C130.834808,183.216599 130.165115,183.275681 129.495422,183.334778 
	C128.987015,186.171478 128.478607,189.008179 127.970215,191.844879 
	C125.909401,191.844879 123.848587,191.844879 121.255638,191.844879 
	C124.227005,185.223831 122.518631,179.026642 122.928497,172.506622 
z"/>
<path fill="#B79A40" opacity="1.000000" stroke="none" 
	d="
M473.983154,189.986191 
	C474.444916,189.994888 474.906677,190.003601 475.714478,190.022186 
	C475.484375,190.658707 474.912689,191.826965 474.331421,191.831741 
	C463.420258,191.921448 452.507935,191.877335 441.596008,191.828506 
	C441.338287,191.827362 441.082306,191.449677 440.664612,190.878067 
	C440.970276,190.073898 441.436859,189.639267 441.903442,189.204651 
	C440.263855,188.322968 438.624298,187.441315 436.348969,186.217789 
	C438.654968,183.402542 440.862671,180.707306 443.070374,178.012070 
	C443.070374,174.226730 443.070374,170.441406 443.070374,166.440826 
	C450.096222,164.873795 450.976318,165.425125 450.795715,172.446716 
	C448.470337,171.393082 449.632996,166.120728 444.756958,167.885010 
	C445.119629,170.506760 445.631744,172.930359 445.751251,175.373154 
	C445.929138,179.010315 445.651855,182.675735 445.951630,186.297409 
	C446.047516,187.455399 447.359467,188.512741 448.115051,189.616119 
	C449.045563,188.598938 450.520447,187.698532 450.769989,186.535248 
	C451.087952,185.053177 450.356537,183.364502 450.189545,181.753296 
	C450.080017,180.696671 450.168823,179.619476 450.168823,178.551498 
	C450.739349,178.528961 451.309875,178.506424 451.880402,178.483887 
	C452.149719,181.334518 452.260223,184.213318 452.758545,187.023331 
	C452.990936,188.333664 453.974670,189.510757 454.617859,190.748230 
	C455.615784,189.612091 457.260986,188.588959 457.482971,187.317368 
	C458.018768,184.248032 457.889557,181.062592 458.333496,178.016434 
	C458.927277,178.412247 459.216003,178.715591 459.478943,179.255447 
	C459.453094,179.491943 459.429230,179.967117 459.393982,180.390656 
	C459.650604,183.199371 459.942444,185.584518 460.317200,188.331512 
	C464.562714,192.959900 469.326813,190.906982 473.983154,189.986191 
z"/>
<path fill="#BE900A" opacity="1.000000" stroke="none" 
	d="
M458.028503,177.923981 
	C457.889557,181.062592 458.018768,184.248032 457.482971,187.317368 
	C457.260986,188.588959 455.615784,189.612091 454.617859,190.748230 
	C453.974670,189.510757 452.990936,188.333664 452.758545,187.023331 
	C452.260223,184.213318 452.149719,181.334518 451.880402,178.483887 
	C451.309875,178.506424 450.739349,178.528961 450.168823,178.551498 
	C450.168823,179.619476 450.080017,180.696671 450.189545,181.753296 
	C450.356537,183.364502 451.087952,185.053177 450.769989,186.535248 
	C450.520447,187.698532 449.045563,188.598938 448.115051,189.616119 
	C447.359467,188.512741 446.047516,187.455399 445.951630,186.297409 
	C445.651855,182.675735 445.929138,179.010315 445.751251,175.373154 
	C445.631744,172.930359 445.119629,170.506760 444.756958,167.885010 
	C449.632996,166.120728 448.470337,171.393082 450.859375,172.880890 
	C451.162872,173.067337 451.003326,173.087769 451.296295,173.190887 
	C452.789612,173.536697 453.989990,173.779404 455.190338,174.022110 
	C456.102844,174.975616 457.015381,175.929123 457.956055,177.328644 
	C457.984192,177.774643 458.028503,177.923981 458.028503,177.923981 
z"/>
<path fill="#BB9216" opacity="1.000000" stroke="none" 
	d="
M443.027588,177.666077 
	C440.862671,180.707306 438.654968,183.402542 436.348969,186.217789 
	C438.624298,187.441315 440.263855,188.322968 441.903442,189.204651 
	C441.436859,189.639267 440.970276,190.073898 440.299194,190.660370 
	C438.692230,191.492325 437.289764,192.172440 435.887299,192.852539 
	C435.519653,193.222870 435.151978,193.593201 434.784302,193.963531 
	C433.433502,192.061386 432.082733,190.159241 430.207336,188.075333 
	C429.127228,187.932327 428.571716,187.971069 428.007751,188.003235 
	C427.999237,187.996643 427.986237,187.979523 428.058899,187.641342 
	C428.769257,185.008636 429.158539,182.814407 426.242737,181.832153 
	C427.366241,181.038971 428.256714,180.462631 429.399353,179.760559 
	C430.063934,179.021454 430.476349,178.408081 430.888611,177.579651 
	C430.888428,177.364609 430.870331,176.934875 430.870331,176.934875 
	C430.870331,176.934875 430.949005,177.012344 431.227814,176.887512 
	C432.321014,175.802109 433.135406,174.841537 433.949799,173.880981 
	C433.949799,173.880981 433.972351,173.941696 434.375610,173.956009 
	C436.230743,173.963898 437.682556,173.957474 439.134399,173.951050 
	C440.417877,175.074066 441.701324,176.197083 443.027588,177.666077 
z"/>
<path fill="#BB9012" opacity="1.000000" stroke="none" 
	d="
M245.009735,187.847321 
	C244.390869,188.731110 243.572769,190.453415 243.185745,190.361465 
	C240.832184,189.802231 238.338181,189.186096 236.372879,187.869644 
	C235.074066,186.999619 234.581604,184.925812 233.443817,183.225891 
	C232.847321,178.320068 232.535110,173.579285 232.136246,167.522690 
	C234.094818,167.402924 237.104828,167.218857 240.555328,167.096954 
	C240.669540,172.410629 240.222946,177.659164 240.093079,182.915527 
	C240.055954,184.419052 240.936234,185.945251 242.080627,187.721268 
	C243.513519,187.936768 244.261642,187.892044 245.009735,187.847321 
z"/>
<path fill="#B18F2A" opacity="1.000000" stroke="none" 
	d="
M214.937866,189.072418 
	C214.292099,184.367935 213.646301,179.663452 212.917084,174.555161 
	C216.831070,174.924332 216.985489,172.581467 216.879059,169.555893 
	C216.838028,168.389465 218.055984,166.139450 218.540970,166.182388 
	C220.211807,166.330414 222.993607,166.986298 223.230545,167.963287 
	C224.148712,171.749115 224.432068,175.726105 224.589935,179.646484 
	C224.701233,182.410416 224.228256,185.197876 223.978302,188.500793 
	C223.940430,189.026749 223.747665,189.175278 223.487488,188.906036 
	C222.840012,185.780472 222.505005,182.915695 222.046677,180.070801 
	C221.751877,178.240997 221.275726,176.440399 220.880859,174.626709 
	C220.136383,174.678177 219.391891,174.729645 218.647415,174.781128 
	C218.440323,177.192429 218.233231,179.603729 218.163483,182.192047 
	C218.491974,182.598862 218.697006,182.815536 218.908722,183.375183 
	C218.638947,184.879669 218.376404,186.028015 217.827484,187.293884 
	C216.673355,187.965088 215.805618,188.518753 214.937866,189.072418 
z"/>
<path fill="#BB9012" opacity="1.000000" stroke="none" 
	d="
M94.123962,174.959106 
	C94.734581,179.974609 95.328300,184.955963 95.584259,190.314270 
	C94.496246,190.795303 93.745995,190.899384 92.764732,190.996521 
	C92.533714,190.989578 92.071556,190.975449 91.872139,190.844330 
	C91.411865,190.529221 91.170105,190.322876 90.952614,189.702148 
	C90.435150,187.670914 89.912506,186.031708 89.389870,184.392487 
	C88.882431,184.600891 88.374992,184.809280 87.867554,185.017685 
	C88.266251,186.720520 88.664948,188.423340 88.828888,190.274872 
	C88.065605,190.584229 87.537079,190.744873 87.008553,190.905518 
	C86.256783,189.035583 85.386726,187.202484 84.789406,185.284454 
	C84.280670,183.650864 84.085861,181.919510 83.458557,180.119720 
	C83.119354,179.247253 83.073761,178.486465 83.242401,177.181824 
	C83.641525,176.407150 83.814209,176.167526 83.974678,175.919098 
	C83.974678,175.919098 83.988327,175.980453 84.344559,175.950684 
	C87.150299,175.254333 89.599800,174.587753 92.049301,173.921173 
	C92.221710,173.950272 92.394119,173.979370 92.964371,174.229645 
	C93.573166,174.634476 93.797279,174.800339 94.034554,174.948441 
	C94.034554,174.948441 94.107079,174.924927 94.123962,174.959106 
z"/>
<path fill="#B28F33" opacity="1.000000" stroke="none" 
	d="
M308.588684,174.098404 
	C306.345367,176.574203 304.659058,186.695801 306.633423,189.391983 
	C307.188690,190.150223 308.651855,190.776688 309.526215,190.601837 
	C310.243256,190.458435 310.979279,189.106232 311.219788,188.165344 
	C311.668304,186.410477 311.614380,184.529816 312.034729,182.764648 
	C312.985046,178.774200 315.242767,178.057587 318.703735,180.740128 
	C312.934937,181.052109 311.779633,183.408691 313.864685,192.048767 
	C307.260712,192.048767 300.769592,192.081299 294.280640,191.977524 
	C293.835419,191.970413 293.406464,190.943848 293.437012,190.077774 
	C296.253876,190.035461 298.603638,190.306747 300.953369,190.578033 
	C301.048187,190.081451 301.143005,189.584885 301.237823,189.088303 
	C300.385254,188.378159 298.945648,187.761475 298.814270,186.936478 
	C298.604034,185.616150 299.154755,182.974197 299.568481,182.936844 
	C304.927887,182.452988 303.967834,179.171997 303.010040,175.804916 
	C304.742065,175.214828 306.474091,174.624725 308.588684,174.098404 
z"/>
<path fill="#BE900A" opacity="1.000000" stroke="none" 
	d="
M302.854340,175.506073 
	C303.967834,179.171997 304.927887,182.452988 299.568481,182.936844 
	C299.154755,182.974197 298.604034,185.616150 298.814270,186.936478 
	C298.945648,187.761475 300.385254,188.378159 301.237823,189.088303 
	C301.143005,189.584885 301.048187,190.081451 300.953369,190.578033 
	C298.603638,190.306747 296.253876,190.035461 293.523560,189.658844 
	C293.143005,189.553513 293.003906,189.400085 292.882446,189.096405 
	C292.576782,188.537521 292.381226,188.291367 292.174286,188.054260 
	C292.021851,186.138580 291.869446,184.222916 291.398010,182.051193 
	C293.283813,179.116745 295.488586,176.438339 297.838562,173.470490 
	C299.555420,173.856430 301.127045,174.531830 302.854340,175.506073 
z"/>
<path fill="#BB9012" opacity="1.000000" stroke="none" 
	d="
M429.147186,179.886292 
	C428.256714,180.462631 427.366241,181.038971 425.904053,181.871246 
	C422.240021,183.010696 421.359406,184.372360 424.517700,186.389328 
	C425.579407,187.067352 426.824799,187.457703 427.986237,187.979523 
	C427.986237,187.979523 427.999237,187.996643 428.008911,188.310272 
	C428.018219,189.033539 428.017822,189.443207 428.017456,189.852859 
	C423.426331,193.283447 419.987061,192.603302 417.975098,187.489655 
	C418.403900,183.073593 416.792511,178.495361 421.247772,174.935654 
	C421.755585,176.683655 422.140930,178.010086 422.637238,179.718430 
	C424.030548,178.009308 425.241730,176.523590 426.746246,174.975891 
	C427.039581,174.913940 426.995239,174.947586 427.127380,175.207733 
	C427.876099,175.969101 428.492706,176.470322 429.109314,176.971542 
	C429.109314,176.971542 429.041473,176.974472 429.045105,177.315002 
	C429.081543,178.399109 429.114380,179.142685 429.147186,179.886292 
z"/>
<path fill="#BE900A" opacity="1.000000" stroke="none" 
	d="
M490.202942,190.476562 
	C490.976532,188.063248 492.689758,186.001114 492.805603,183.852844 
	C492.992523,180.386993 492.127197,176.864365 491.436890,173.183640 
	C491.116791,172.601562 491.066101,172.201553 491.170471,171.183243 
	C491.535217,169.429199 491.744965,168.293488 491.954681,167.157761 
	C492.417084,167.121323 492.879456,167.084885 493.944275,167.384583 
	C495.051849,169.903839 495.726379,172.063843 496.028198,174.274704 
	C496.737335,179.468994 497.268341,184.687607 497.871460,189.896362 
	C495.389496,190.193939 492.907532,190.491516 490.202942,190.476562 
z"/>
<path fill="#B18F2A" opacity="1.000000" stroke="none" 
	d="
M498.230713,189.991516 
	C497.268341,184.687607 496.737335,179.468994 496.028198,174.274704 
	C495.726379,172.063843 495.051849,169.903839 494.288025,167.449585 
	C496.410156,166.305267 498.272217,166.139969 498.000153,169.656311 
	C497.846863,171.637543 497.972504,173.640366 497.972504,175.963364 
	C499.260803,175.177780 500.265869,174.564880 501.607971,173.927750 
	C500.966522,176.280548 499.700714,178.584183 499.070892,181.050262 
	C497.848114,185.838150 501.209747,188.908691 503.906555,192.529022 
	C502.210968,191.926453 500.400482,191.006561 498.230713,189.991516 
z"/>
<path fill="#B79A40" opacity="1.000000" stroke="none" 
	d="
M276.044342,188.964844 
	C276.035400,188.224030 276.026489,187.483231 276.016541,185.996826 
	C276.021118,184.498260 276.026764,183.745285 276.032440,182.992310 
	C276.050842,182.263062 276.069214,181.533829 276.101471,180.441925 
	C276.115356,180.079269 276.449646,180.032791 276.616699,180.008759 
	C277.052338,184.051285 277.320892,188.117828 277.575653,191.975662 
	C272.582092,191.975662 267.281525,191.978119 261.980957,191.974716 
	C258.968353,191.972778 255.955734,191.961243 252.943130,191.954041 
	C252.969925,189.014389 252.971130,186.074234 253.030609,183.135239 
	C253.091675,180.118286 253.209717,177.102463 253.703629,174.131363 
	C254.273056,178.787689 254.264603,183.417252 254.741516,187.996246 
	C254.853195,189.068466 256.508911,190.651230 257.627228,190.814545 
	C260.384277,191.217148 263.241730,190.931961 266.874390,190.908035 
	C268.163177,190.882584 268.636383,190.872406 269.299255,190.744659 
	C269.736694,190.455353 269.966522,190.262222 270.360840,190.073395 
	C270.543274,190.099121 270.911224,190.119476 270.911224,190.119476 
	C272.039154,190.377609 273.167114,190.635757 274.826752,190.693848 
	C275.587067,189.984131 275.815704,189.474487 276.044342,188.964844 
z"/>
<path fill="#B79A40" opacity="1.000000" stroke="none" 
	d="
M318.598511,184.935486 
	C319.007507,187.497482 318.679535,190.394440 322.376251,190.903015 
	C325.170258,191.287369 327.329590,190.692383 327.228455,187.152039 
	C327.191772,185.868988 327.429260,184.578094 328.126495,183.204620 
	C329.111847,185.042618 329.512360,186.966782 329.912842,188.890945 
	C334.251678,192.452057 335.055664,191.826569 337.494568,183.492447 
	C337.674011,185.400131 337.853455,187.307831 338.057983,189.629089 
	C337.941345,190.514236 337.835022,191.383560 337.652802,191.399780 
	C331.626160,191.936111 325.544189,192.987122 319.587860,192.506348 
	C317.718506,192.355453 315.714844,188.133514 318.598511,184.935486 
z"/>
<path fill="#B79A40" opacity="1.000000" stroke="none" 
	d="
M200.894501,171.350311 
	C201.421234,176.582672 201.931320,182.177246 202.520691,188.641571 
	C197.668472,185.769592 197.325577,183.963531 198.582428,179.290146 
	C199.071747,177.470673 198.460220,175.355133 198.162903,173.056854 
	C198.943085,172.397018 199.910461,172.054794 200.894501,171.350311 
z"/>
<path fill="#B79A40" opacity="1.000000" stroke="none" 
	d="
M199.898483,190.776398 
	C204.610092,190.823685 209.321716,190.870956 214.876953,190.916672 
	C216.480072,190.946609 217.239532,190.978104 218.384872,191.029083 
	C220.429703,190.424118 222.088684,189.799698 223.747665,189.175278 
	C223.747665,189.175278 223.940430,189.026749 224.023743,188.938171 
	C224.614807,190.385345 225.122559,191.921082 225.630295,193.456818 
	C224.216644,193.619751 222.786102,194.010803 221.392166,193.907562 
	C213.912628,193.353592 206.442215,192.676590 198.502686,192.053192 
	C198.025345,191.857697 198.013962,191.651093 198.340332,191.143311 
	C199.084885,190.820221 199.491684,190.798309 199.898483,190.776398 
z"/>
<path fill="#B28F33" opacity="1.000000" stroke="none" 
	d="
M535.296631,195.821259 
	C536.540283,190.227844 538.199341,184.609589 539.753723,178.962509 
	C540.123901,177.617706 540.144226,176.176590 540.193970,174.470856 
	C541.017822,174.973862 542.933228,176.113754 542.784729,176.548447 
	C540.574890,183.015762 538.092041,189.389786 535.296631,195.821259 
z"/>
<path fill="#B28F33" opacity="1.000000" stroke="none" 
	d="
M538.913330,173.602386 
	C538.437012,176.099243 537.721680,178.241852 537.006287,180.384476 
	C534.724609,172.064758 527.485168,176.225800 522.476135,174.168152 
	C527.643921,173.743561 533.159058,173.495865 538.913330,173.602386 
z"/>
<path fill="#B9901B" opacity="1.000000" stroke="none" 
	d="
M128.310608,191.907394 
	C128.478607,189.008179 128.987015,186.171478 129.495422,183.334778 
	C130.165115,183.275681 130.834808,183.216599 131.504501,183.157501 
	C132.627411,185.541046 133.750320,187.924591 134.573242,190.598633 
	C133.462265,190.931076 132.651276,190.972992 131.840302,191.014923 
	C130.777206,191.333252 129.714096,191.651581 128.310608,191.907394 
z"/>
<path fill="#B79A40" opacity="1.000000" stroke="none" 
	d="
M92.995750,191.003448 
	C93.745995,190.899384 94.496246,190.795303 95.617195,190.609131 
	C101.414375,190.212250 106.840858,189.897461 112.532997,189.320465 
	C113.247330,190.514145 113.695999,191.970001 113.923935,192.709641 
	C106.981354,192.454117 100.395538,192.211731 93.373291,191.689804 
	C92.936859,191.410263 92.995750,191.003448 92.995750,191.003448 
z"/>
<path fill="#B18F2A" opacity="1.000000" stroke="none" 
	d="
M176.654175,185.047577 
	C176.190201,186.191940 175.431259,187.479019 174.327057,188.445984 
	C173.215042,183.529022 172.448288,178.932205 171.782715,174.225922 
	C171.883896,174.116455 172.085709,173.897018 172.085709,173.897018 
	C176.683014,176.394653 174.484344,180.775940 175.058319,184.400970 
	C175.109573,184.724625 175.907852,184.929993 176.654175,185.047577 
z"/>
<path fill="#B79A40" opacity="1.000000" stroke="none" 
	d="
M32.628456,188.907684 
	C36.132393,189.518402 39.241077,190.481598 42.418747,190.850357 
	C44.291805,191.067734 46.274239,190.342621 48.630352,190.041901 
	C47.866814,190.702057 46.729286,191.802124 45.484985,191.940247 
	C41.470520,192.385849 37.408073,192.740204 33.381355,192.607315 
	C30.940828,192.526810 29.815619,191.093216 32.628456,188.907684 
z"/>
<path fill="#BE900A" opacity="1.000000" stroke="none" 
	d="
M335.944580,173.980591 
	C334.526001,173.742325 333.107452,173.504074 331.355621,173.128647 
	C331.022369,172.991486 331.055878,172.560028 331.205627,171.997925 
	C331.672028,169.674393 331.988678,167.912949 332.305328,166.151505 
	C332.647949,166.119217 332.990570,166.086945 333.766113,166.435394 
	C334.780914,169.204285 335.362732,171.592438 335.944580,173.980591 
z"/>
<path fill="#B28F33" opacity="1.000000" stroke="none" 
	d="
M171.970688,190.821869 
	C172.409927,190.845322 172.849167,190.868790 173.923767,190.912506 
	C174.963974,190.916092 175.368820,190.899429 175.773651,190.882782 
	C175.773651,190.882782 175.966766,190.923798 176.062149,190.952209 
	C171.860535,191.319778 167.568237,191.755356 163.264938,191.965759 
	C160.156113,192.117737 157.032654,191.970352 153.448318,191.891785 
	C153.209991,191.610474 153.449966,191.406723 154.252563,191.065811 
	C155.531525,190.882660 156.258743,190.849518 157.317719,190.835083 
	C158.091782,190.850082 158.534088,190.846405 159.364990,190.867661 
	C160.533325,190.873566 161.313095,190.854553 162.496704,190.853622 
	C164.247299,190.865845 165.594025,190.859970 167.298309,190.867935 
	C168.132904,190.863022 168.609970,190.844284 169.447296,190.839142 
	C170.528625,190.842453 171.249649,190.832169 171.970688,190.821869 
z"/>
<path fill="#B28F33" opacity="1.000000" stroke="none" 
	d="
M132.101883,191.371719 
	C132.651276,190.972992 133.462265,190.931076 134.678909,190.853592 
	C135.508957,190.833725 135.933350,190.849396 136.866058,190.768265 
	C137.623230,190.513794 137.854721,190.333786 138.068832,190.131424 
	C138.820419,190.144867 139.572006,190.158325 140.972351,190.311661 
	C142.443817,190.580658 143.266541,190.709778 144.479919,190.847687 
	C145.912582,190.869644 146.954559,190.882812 148.247925,190.902084 
	C148.666916,190.906158 148.834549,190.904114 149.329224,190.894012 
	C150.091583,190.864014 150.526886,190.842072 150.962189,190.820145 
	C150.962189,190.820145 150.997375,191.300842 151.017456,191.541000 
	C144.812851,191.763611 138.588150,191.746078 132.101883,191.371719 
z"/>
<path fill="#B9901B" opacity="1.000000" stroke="none" 
	d="
M458.333496,178.016434 
	C458.028503,177.923981 457.984192,177.774643 457.986023,177.734222 
	C458.116882,176.649689 458.245972,175.605545 458.446320,173.985046 
	C460.903412,173.985046 463.450104,173.985046 466.462616,173.953781 
	C466.928406,173.922516 466.971497,173.991074 466.684631,174.193024 
	C464.100098,175.936310 461.802429,177.477631 459.504761,179.018951 
	C459.216003,178.715591 458.927277,178.412247 458.333496,178.016434 
z"/>
<path fill="#B28F33" opacity="1.000000" stroke="none" 
	d="
M336.281006,173.940063 
	C335.362732,171.592438 334.780914,169.204285 334.019653,166.492126 
	C338.663239,165.357025 335.779083,170.690613 338.642242,171.798920 
	C338.210754,172.542923 337.414093,173.221237 336.281006,173.940063 
z"/>
<path fill="#B18F2A" opacity="1.000000" stroke="none" 
	d="
M163.040680,173.967590 
	C165.932281,173.689941 168.786179,173.469589 171.862885,173.573120 
	C172.085709,173.897018 171.883896,174.116455 171.446854,174.191727 
	C168.315781,174.224518 165.621765,174.182037 162.927734,174.139557 
	C162.927734,174.139557 163.002975,174.024872 163.040680,173.967590 
z"/>
<path fill="#BB9216" opacity="1.000000" stroke="none" 
	d="
M91.849350,173.602081 
	C89.599800,174.587753 87.150299,175.254333 84.317276,175.935120 
	C86.505630,175.060532 89.077515,174.171753 91.849350,173.602081 
z"/>
<path fill="#B28F33" opacity="1.000000" stroke="none" 
	d="
M331.882538,166.099411 
	C331.988678,167.912949 331.672028,169.674393 331.202087,171.781586 
	C331.185730,170.100647 331.322723,168.073990 331.882538,166.099411 
z"/>
<path fill="#B18F2A" opacity="1.000000" stroke="none" 
	d="
M491.589294,167.100800 
	C491.744965,168.293488 491.535217,169.429199 491.171265,170.879517 
	C489.484283,169.730835 486.477478,168.194077 491.589294,167.100800 
z"/>
<path fill="#B79A40" opacity="1.000000" stroke="none" 
	d="
M90.947441,190.094147 
	C91.170105,190.322876 91.411865,190.529221 91.893219,191.055252 
	C92.113708,191.397308 92.170952,191.817093 92.170952,191.817093 
	C89.216461,191.779678 86.261978,191.742279 83.061935,191.339478 
	C83.935158,190.962585 85.053932,190.951080 86.590622,190.922546 
	C87.537079,190.744873 88.065605,190.584229 89.142319,190.257858 
	C90.109482,190.092804 90.528458,190.093475 90.947441,190.094147 
z"/>
<path fill="#B79A40" opacity="1.000000" stroke="none" 
	d="
M338.892944,190.380951 
	C341.274689,190.303070 343.736633,190.640717 346.618347,191.006287 
	C344.349823,190.954987 341.661469,190.875732 338.892944,190.380951 
z"/>
<path fill="#B18F2A" opacity="1.000000" stroke="none" 
	d="
M433.601379,173.921936 
	C433.135406,174.841537 432.321014,175.802109 431.182434,176.850769 
	C431.656494,175.946884 432.454742,174.954895 433.601379,173.921936 
z"/>
<path fill="#B18F2A" opacity="1.000000" stroke="none" 
	d="
M176.895340,181.413330 
	C177.015533,182.232895 177.185501,183.447617 177.111954,184.827164 
	C176.893982,183.930817 176.919540,182.869659 176.895340,181.413330 
z"/>
<path fill="#B18F2A" opacity="1.000000" stroke="none" 
	d="
M438.940186,173.625366 
	C437.682556,173.957474 436.230743,173.963898 434.343506,173.951874 
	C435.520721,173.722168 437.133362,173.510925 438.940186,173.625366 
z"/>
<path fill="#B18F2A" opacity="1.000000" stroke="none" 
	d="
M506.924744,173.634186 
	C505.684143,173.961273 504.240417,173.971207 502.365723,173.956848 
	C503.530365,173.727371 505.125977,173.522202 506.924744,173.634186 
z"/>
<path fill="#B18F2A" opacity="1.000000" stroke="none" 
	d="
M429.399353,179.760559 
	C429.114380,179.142685 429.081543,178.399109 429.047241,177.281128 
	C429.225403,176.936920 429.405029,176.967102 429.968811,177.188446 
	C430.516693,177.537186 430.695282,177.675552 430.888763,177.794708 
	C430.476349,178.408081 430.063934,179.021454 429.399353,179.760559 
z"/>
<path fill="#B18F2A" opacity="1.000000" stroke="none" 
	d="
M429.065735,176.617615 
	C428.492706,176.470322 427.876099,175.969101 427.141266,175.182861 
	C427.689423,175.353119 428.355804,175.808395 429.065735,176.617615 
z"/>
<path fill="#B79A40" opacity="1.000000" stroke="none" 
	d="
M194.177979,192.113281 
	C195.210175,191.792526 196.246948,191.852020 197.667694,191.977188 
	C196.761963,192.193085 195.472260,192.343307 194.177979,192.113281 
z"/>
<path fill="#B79A40" opacity="1.000000" stroke="none" 
	d="
M454.979279,173.695099 
	C453.989990,173.779404 452.789612,173.536697 451.271851,173.114258 
	C452.225708,173.079056 453.496948,173.223572 454.979279,173.695099 
z"/>
<path fill="#B79A40" opacity="1.000000" stroke="none" 
	d="
M347.364319,190.897186 
	C347.010468,189.950897 346.986023,188.862442 346.997131,187.367004 
	C347.253052,188.225021 347.473389,189.490036 347.364319,190.897186 
z"/>
<path fill="#B18F2A" opacity="1.000000" stroke="none" 
	d="
M428.307617,189.843781 
	C428.017822,189.443207 428.018219,189.033539 428.017395,188.316864 
	C428.571716,187.971069 429.127228,187.932327 429.874207,187.986816 
	C429.576385,188.664948 429.087067,189.249817 428.307617,189.843781 
z"/>
<path fill="#B18F2A" opacity="1.000000" stroke="none" 
	d="
M506.267700,192.836212 
	C506.488708,192.322495 507.000885,191.807144 507.775970,191.204697 
	C507.545563,191.689926 507.052216,192.262238 506.267700,192.836212 
z"/>
<path fill="#B79A40" opacity="1.000000" stroke="none" 
	d="
M346.929047,186.676758 
	C346.492432,186.751053 345.940613,186.525269 345.195007,186.063278 
	C345.605438,186.010269 346.209656,186.193466 346.929047,186.676758 
z"/>
<path fill="#B79A40" opacity="1.000000" stroke="none" 
	d="
M50.359558,188.958755 
	C50.272282,188.507019 50.498028,187.956375 50.952271,187.197693 
	C51.011372,187.613052 50.841972,188.236450 50.359558,188.958755 
z"/>
<path fill="#B18F2A" opacity="1.000000" stroke="none" 
	d="
M176.961975,191.266800 
	C177.142319,191.152435 177.409393,191.318970 177.834198,191.675003 
	C177.698975,191.724472 177.384583,191.618881 176.961975,191.266800 
z"/>
<path fill="#BB9216" opacity="1.000000" stroke="none" 
	d="
M92.345428,191.869308 
	C92.170952,191.817093 92.113708,191.397308 92.092636,191.186371 
	C92.071556,190.975449 92.533714,190.989578 92.764732,190.996521 
	C92.995750,191.003448 92.936859,191.410263 92.902710,191.613159 
	C92.868568,191.816055 92.519913,191.921524 92.345428,191.869308 
z"/>
<path fill="#B79A40" opacity="1.000000" stroke="none" 
	d="
M81.226402,191.815079 
	C81.191727,191.586853 81.444878,191.393021 81.916779,191.091309 
	C81.912582,191.251404 81.705482,191.540085 81.226402,191.815079 
z"/>
<path fill="#BB9216" opacity="1.000000" stroke="none" 
	d="
M93.977661,174.707230 
	C93.797279,174.800339 93.573166,174.634476 93.216202,174.302887 
	C93.443153,174.013687 93.726685,174.117386 93.977661,174.707230 
z"/>
<path fill="#BB9216" opacity="1.000000" stroke="none" 
	d="
M83.734863,176.004776 
	C83.814209,176.167526 83.641525,176.407150 83.312485,176.805984 
	C83.277245,176.679489 83.386147,176.384964 83.734863,176.004776 
z"/>
<path fill="#B79A40" opacity="1.000000" stroke="none" 
	d="
M200.134644,170.238220 
	C200.414322,170.167694 200.615143,170.401413 200.877884,170.876709 
	C200.682983,170.893845 200.388321,170.701889 200.134644,170.238220 
z"/>
<path fill="#B79A40" opacity="1.000000" stroke="none" 
	d="
M49.271217,189.992172 
	C49.219444,189.804169 49.428802,189.545059 49.851242,189.152557 
	C49.886993,189.319794 49.709671,189.620422 49.271217,189.992172 
z"/>
<path fill="#BB9012" opacity="1.000000" stroke="none" 
	d="
M430.888611,177.579651 
	C430.695282,177.675552 430.516693,177.537186 430.232910,177.258301 
	C430.112885,177.137009 430.482422,176.999191 430.676392,176.967041 
	C430.870331,176.934875 430.888428,177.364609 430.888611,177.579651 
z"/>
<path fill="#B28F33" opacity="1.000000" stroke="none" 
	d="
M292.178833,188.315948 
	C292.381226,188.291367 292.576782,188.537521 292.889404,188.993073 
	C292.739685,188.988159 292.461517,188.782898 292.178833,188.315948 
z"/>
<path fill="#000000" opacity="1.000000" stroke="none" 
	d="
M44.957767,176.513367 
	C44.381393,180.617355 43.783791,184.304733 43.186188,187.992111 
	C42.655731,187.926590 42.125271,187.861084 41.594810,187.795563 
	C39.420784,182.614273 39.039284,177.409225 41.970863,170.924118 
	C43.295563,173.234619 44.116051,174.665695 44.957767,176.513367 
z"/>
<path fill="#000000" opacity="1.000000" stroke="none" 
	d="
M524.759949,184.057648 
	C525.935974,182.623840 526.775146,181.283630 528.071045,179.214157 
	C530.053589,183.965546 531.743225,188.014969 533.432861,192.064377 
	C533.011719,192.579956 532.590576,193.095520 532.169434,193.611099 
	C530.403625,192.587738 528.687134,191.463104 526.856445,190.573151 
	C525.395691,189.863022 523.831360,189.265259 522.246826,188.941925 
	C520.945435,188.676376 519.546753,188.887772 517.062073,188.887772 
	C520.281799,186.816010 522.352478,185.483643 524.759949,184.057648 
z"/>
<path fill="#000000" opacity="1.000000" stroke="none" 
	d="
M505.010010,185.208405 
	C505.100189,184.251678 505.189545,183.633377 505.278870,183.015060 
	C505.417084,183.025925 505.555267,183.036789 505.693481,183.047653 
	C505.693481,184.672180 505.693481,186.296707 505.693481,187.921234 
	C505.465393,187.919617 505.237305,187.918015 505.009216,187.916412 
	C505.009216,187.126541 505.009216,186.336685 505.010010,185.208405 
z"/>
<path fill="#000000" opacity="1.000000" stroke="none" 
	d="
M329.949402,188.446762 
	C329.512360,186.966782 329.111847,185.042618 328.357666,182.913803 
	C328.340820,181.388672 328.677704,180.068192 329.059448,178.395264 
	C329.398193,181.362747 329.692078,184.682663 329.949402,188.446762 
z"/>
<path fill="#B9901B" opacity="1.000000" stroke="none" 
	d="
M217.999008,191.009613 
	C217.239532,190.978104 216.480072,190.946609 215.340363,190.888336 
	C214.958557,190.463852 214.956985,190.066162 214.946625,189.370438 
	C215.805618,188.518753 216.673355,187.965088 217.813522,187.672409 
	C218.056976,188.958817 218.028000,189.984207 217.999008,191.009613 
z"/>
<path fill="#B9901B" opacity="1.000000" stroke="none" 
	d="
M207.987854,188.436066 
	C208.020828,188.438095 207.954865,188.434036 207.987854,188.436066 
z"/>
<path fill="#B9901B" opacity="1.000000" stroke="none" 
	d="
M199.721832,190.700562 
	C199.491684,190.798309 199.084885,190.820221 198.373154,190.834686 
	C198.560532,190.759735 199.052856,190.692230 199.721832,190.700562 
z"/>
<path fill="#BB9012" opacity="1.000000" stroke="none" 
	d="
M459.478943,179.255447 
	C461.802429,177.477631 464.100098,175.936310 466.706116,174.227341 
	C471.952332,174.247742 472.707703,177.632538 472.902466,181.589340 
	C473.029846,184.176514 473.427246,186.750381 473.843445,189.658203 
	C469.326813,190.906982 464.562714,192.959900 460.586121,188.123581 
	C462.359558,184.664688 463.238892,181.900909 459.429230,179.967117 
	C459.429230,179.967117 459.453094,179.491943 459.478943,179.255447 
z"/>
<path fill="#B9901B" opacity="1.000000" stroke="none" 
	d="
M269.109589,190.862228 
	C268.636383,190.872406 268.163177,190.882584 267.334900,190.887070 
	C267.956604,189.754730 268.933380,188.628098 269.910126,187.501450 
	C270.308380,188.191437 270.706604,188.881424 271.008026,189.845459 
	C270.911224,190.119476 270.543274,190.099121 270.168274,190.194000 
	C269.550110,190.461777 269.322205,190.652893 269.109589,190.862228 
z"/>
<path fill="#B9901B" opacity="1.000000" stroke="none" 
	d="
M275.786377,183.117096 
	C276.026764,183.745285 276.021118,184.498260 275.994019,185.626907 
	C275.828461,185.082352 275.684418,184.162109 275.786377,183.117096 
z"/>
<path fill="#B9901B" opacity="1.000000" stroke="none" 
	d="
M275.876770,189.189453 
	C275.815704,189.474487 275.587067,189.984131 275.175964,190.704437 
	C275.232086,190.414734 275.470642,189.914398 275.876770,189.189453 
z"/>
<path fill="#BE900A" opacity="1.000000" stroke="none" 
	d="
M162.533173,174.144775 
	C165.621765,174.182037 168.315781,174.224518 171.345673,174.301193 
	C172.448288,178.932205 173.215042,183.529022 173.998291,188.547821 
	C173.429016,189.427521 172.843231,189.885239 172.114075,190.582428 
	C171.249649,190.832169 170.528625,190.842453 169.519302,190.461151 
	C169.893890,186.003189 171.290405,181.767334 166.816086,178.361267 
	C163.136475,182.987213 164.547165,186.932373 166.940750,190.854111 
	C165.594025,190.859970 164.247299,190.865845 162.471558,190.474945 
	C162.023727,189.055237 162.004913,188.032303 161.984039,186.672485 
	C161.979172,185.886490 161.976334,185.437332 161.965332,184.686905 
	C161.673538,183.669693 161.389877,182.953781 160.621780,181.015137 
	C160.287613,183.233749 160.154510,184.117493 159.701462,185.067627 
	C158.583008,187.028137 157.784485,188.922272 156.985977,190.816391 
	C156.258743,190.849518 155.531525,190.882660 154.442383,190.925629 
	C153.938477,186.651382 153.625763,182.361252 153.777863,178.087646 
	C153.814590,177.055374 155.204910,175.604477 156.296402,175.181793 
	C158.105667,174.481155 160.177429,174.458344 162.533173,174.144775 
z"/>
<path fill="#BE900A" opacity="1.000000" stroke="none" 
	d="
M147.996536,190.895981 
	C146.954559,190.882812 145.912582,190.869644 144.454315,190.481995 
	C144.006287,189.369110 143.974533,188.630722 143.966400,187.447937 
	C143.657074,182.891037 143.324158,178.778503 142.946350,174.111557 
	C143.084671,174.028900 144.036407,173.460144 145.181915,172.886810 
	C145.375702,172.882233 145.764694,172.856750 145.859146,172.925201 
	C145.953598,172.993668 146.140549,173.133224 146.140549,173.133224 
	C151.213821,177.820190 150.604431,184.191818 151.082001,190.512909 
	C150.526886,190.842072 150.091583,190.864014 149.207794,190.845337 
	C148.495438,190.744247 148.241180,190.774673 147.996536,190.895981 
z"/>
<path fill="#000000" opacity="1.000000" stroke="none" 
	d="
M144.988129,172.891388 
	C144.036407,173.460144 143.084671,174.028900 142.946350,174.111557 
	C143.324158,178.778503 143.657074,182.891037 143.683533,187.563583 
	C142.272156,187.392517 141.167221,186.661423 140.062286,185.930344 
	C140.062286,185.930344 140.007751,185.965698 139.929657,185.683578 
	C139.242249,184.887451 138.632904,184.373444 138.023575,183.859436 
	C138.023575,183.859436 137.980392,183.543320 137.998596,183.043060 
	C137.359741,181.667175 136.702682,180.791550 136.045624,179.915939 
	C136.045624,179.915939 136.062805,179.973801 136.089172,179.958954 
	C136.253784,174.658020 139.335312,172.036179 144.611984,171.343033 
	C145.086563,171.847427 145.141434,172.030197 145.120483,172.375275 
	C145.044647,172.537582 144.988129,172.891388 144.988129,172.891388 
z"/>
<path fill="#BE900A" opacity="1.000000" stroke="none" 
	d="
M145.196304,172.212982 
	C145.141434,172.030197 145.086563,171.847427 144.983673,171.382172 
	C145.861343,170.277756 146.787033,169.455811 147.712738,168.633865 
	C147.393021,170.043915 147.073303,171.453949 146.447067,172.998596 
	C146.140549,173.133224 145.953598,172.993668 145.776733,172.810394 
	C145.481705,172.473160 145.347183,172.335114 145.196304,172.212982 
z"/>
<path fill="#B18F2A" opacity="1.000000" stroke="none" 
	d="
M175.608032,190.782379 
	C175.368820,190.899429 174.963974,190.916092 174.253174,190.930923 
	C174.445602,190.846725 174.944016,190.764359 175.608032,190.782379 
z"/>
<path fill="#000000" opacity="1.000000" stroke="none" 
	d="
M245.177948,187.507202 
	C244.261642,187.892044 243.513519,187.936768 242.390869,187.928772 
	C241.995270,184.070358 241.756790,180.248840 242.032120,176.464722 
	C242.205933,174.075638 243.147461,171.742416 244.300140,169.467697 
	C248.098068,175.304474 247.853470,181.185638 245.177948,187.507202 
z"/>
<path fill="#B9901B" opacity="1.000000" stroke="none" 
	d="
M140.067078,186.293335 
	C141.167221,186.661423 142.272156,187.392517 143.659943,188.007965 
	C143.974533,188.630722 144.006287,189.369110 144.063644,190.473206 
	C143.266541,190.709778 142.443817,190.580658 141.348206,190.307526 
	C140.740829,188.994431 140.406357,187.825378 140.067078,186.293335 
z"/>
<path fill="#B18F2A" opacity="1.000000" stroke="none" 
	d="
M136.075348,180.245728 
	C136.702682,180.791550 137.359741,181.667175 137.934326,182.897034 
	C137.269608,182.359375 136.687347,181.467453 136.075348,180.245728 
z"/>
<path fill="#B9901B" opacity="1.000000" stroke="none" 
	d="
M138.143082,184.141541 
	C138.632904,184.373444 139.242249,184.887451 139.962097,185.685364 
	C139.469284,185.454071 138.865936,184.938858 138.143082,184.141541 
z"/>
<path fill="#B9901B" opacity="1.000000" stroke="none" 
	d="
M137.880112,190.244537 
	C137.854721,190.333786 137.623230,190.513794 137.184753,190.781723 
	C137.213501,190.696014 137.445587,190.517899 137.880112,190.244537 
z"/>
<path fill="#B9901B" opacity="1.000000" stroke="none" 
	d="
M459.393982,180.390656 
	C463.238892,181.900909 462.359558,184.664688 460.503235,187.761749 
	C459.942444,185.584518 459.650604,183.199371 459.393982,180.390656 
z"/>
<path fill="#B18F2A" opacity="1.000000" stroke="none" 
	d="
M428.058899,187.641342 
	C426.824799,187.457703 425.579407,187.067352 424.517700,186.389328 
	C421.359406,184.372360 422.240021,183.010696 425.671082,182.088058 
	C429.158539,182.814407 428.769257,185.008636 428.058899,187.641342 
z"/>
<path fill="#BE900A" opacity="1.000000" stroke="none" 
	d="
M218.384872,191.029083 
	C218.028000,189.984207 218.056976,188.958817 218.099915,187.554901 
	C218.376404,186.028015 218.638947,184.879669 218.772980,183.197433 
	C218.453156,182.433289 218.247040,182.217102 218.026138,182.015030 
	C218.233231,179.603729 218.440323,177.192429 218.647415,174.781128 
	C219.391891,174.729645 220.136383,174.678177 220.880859,174.626709 
	C221.275726,176.440399 221.751877,178.240997 222.046677,180.070801 
	C222.505005,182.915695 222.840012,185.780472 223.487488,188.906036 
	C222.088684,189.799698 220.429703,190.424118 218.384872,191.029083 
z"/>
<path fill="#B9901B" opacity="1.000000" stroke="none" 
	d="
M218.163483,182.192047 
	C218.247040,182.217102 218.453156,182.433289 218.780212,182.841309 
	C218.697006,182.815536 218.491974,182.598862 218.163483,182.192047 
z"/>
<path fill="#BB9216" opacity="1.000000" stroke="none" 
	d="
M90.952614,189.702133 
	C90.528458,190.093475 90.109482,190.092804 89.377068,190.109161 
	C88.664948,188.423340 88.266251,186.720520 87.867554,185.017685 
	C88.374992,184.809280 88.882431,184.600891 89.389870,184.392487 
	C89.912506,186.031708 90.435150,187.670914 90.952614,189.702133 
z"/>
<path fill="#BB9216" opacity="1.000000" stroke="none" 
	d="
M269.299255,190.744659 
	C269.322205,190.652893 269.550110,190.461777 269.985840,190.168274 
	C269.966522,190.262222 269.736694,190.455353 269.299255,190.744659 
z"/>
<path fill="#BB9216" opacity="1.000000" stroke="none" 
	d="
M167.298309,190.867935 
	C164.547165,186.932373 163.136475,182.987213 166.816086,178.361267 
	C171.290405,181.767334 169.893890,186.003189 169.159027,190.447540 
	C168.609970,190.844284 168.132904,190.863022 167.298309,190.867935 
z"/>
<path fill="#BB9216" opacity="1.000000" stroke="none" 
	d="
M161.973495,184.988190 
	C161.976334,185.437332 161.979172,185.886490 161.669983,186.778625 
	C160.564102,188.428680 159.770248,189.635712 158.976395,190.842743 
	C158.534088,190.846405 158.091782,190.850082 157.317719,190.835083 
	C157.784485,188.922272 158.583008,187.028137 160.026703,185.066696 
	C161.105774,184.995651 161.539627,184.991913 161.973495,184.988190 
z"/>
<path fill="#B9901B" opacity="1.000000" stroke="none" 
	d="
M159.364990,190.867661 
	C159.770248,189.635712 160.564102,188.428680 161.672028,187.115494 
	C162.004913,188.032303 162.023727,189.055237 162.067688,190.456863 
	C161.313095,190.854553 160.533325,190.873566 159.364990,190.867661 
z"/>
<path fill="#B9901B" opacity="1.000000" stroke="none" 
	d="
M148.247925,190.902084 
	C148.241180,190.774673 148.495438,190.744247 148.880737,190.853394 
	C148.834549,190.904114 148.666916,190.906158 148.247925,190.902084 
z"/>
<path fill="#B9901B" opacity="1.000000" stroke="none" 
	d="
M161.965332,184.686905 
	C161.539627,184.991913 161.105774,184.995651 160.346649,185.000305 
	C160.154510,184.117493 160.287613,183.233749 160.621780,181.015137 
	C161.389877,182.953781 161.673538,183.669693 161.965332,184.686905 
z"/>
<path fill="#B18F2A" opacity="1.000000" stroke="none" 
	d="
M145.120483,172.375275 
	C145.347183,172.335114 145.481705,172.473160 145.682281,172.741943 
	C145.764694,172.856750 145.375702,172.882233 145.181915,172.886810 
	C144.988129,172.891388 145.044647,172.537582 145.120483,172.375275 
z"/>
</svg>