<?xml version="1.0" encoding="UTF-8"?>
<svg version="1.1" xmlns="http://www.w3.org/2000/svg" width="922" height="518">
<path d="M0 0 C304.26 0 608.52 0 922 0 C922 170.94 922 341.88 922 518 C617.74 518 313.48 518 0 518 C0 347.06 0 176.12 0 0 Z " fill="#353434" transform="translate(0,0)"/>
<path d="M0 0 C304.26 0 608.52 0 922 0 C922 170.94 922 341.88 922 518 C617.74 518 313.48 518 0 518 C0 347.06 0 176.12 0 0 Z M90 103 C90 217.51 90 332.02 90 450 C328.26 450 566.52 450 812 450 C812 335.49 812 220.98 812 103 C573.74 103 335.48 103 90 103 Z " fill="#1F1E1E" transform="translate(0,0)"/>
<path d="M0 0 C220.11 0 440.22 0 667 0 C667 31.02 667 62.04 667 94 C446.89 94 226.78 94 0 94 C0 62.98 0 31.96 0 0 Z " fill="#414948" transform="translate(118,319)"/>
<path d="M0 0 C87.78 0 175.56 0 266 0 C266 10.23 266 20.46 266 31 C178.22 31 90.44 31 0 31 C0 20.77 0 10.54 0 0 Z " fill="#FBFBFB" transform="translate(409,162)"/>
<path d="M0 0 C87.78 0 175.56 0 266 0 C266 10.23 266 20.46 266 31 C178.22 31 90.44 31 0 31 C0 20.77 0 10.54 0 0 Z " fill="#FCFCFC" transform="translate(118,162)"/>
<path d="M0 0 C43.89 0 87.78 0 133 0 C133 11.55 133 23.1 133 35 C89.11 35 45.22 35 0 35 C0 23.45 0 11.9 0 0 Z " fill="#4D4D4D" transform="translate(118,269)"/>
<path d="M0 0 C19.8 0 39.6 0 60 0 C60 11.55 60 23.1 60 35 C40.2 35 20.4 35 0 35 C0 23.45 0 11.9 0 0 Z " fill="#01E67B" transform="translate(700,157)"/>
<path d="M0 0 C15.84 0 31.68 0 48 0 C48 11.55 48 23.1 48 35 C32.16 35 16.32 35 0 35 C0 23.45 0 11.9 0 0 Z " fill="#04E67C" transform="translate(118,269)"/>
<path d="M0 0 C4.62 0 9.24 0 14 0 C14 1.65 14 3.3 14 5 C15.98 5 17.96 5 20 5 C20 5.66 20 6.32 20 7 C19.01 7 18.02 7 17 7 C17.00785522 7.85549438 17.00785522 7.85549438 17.01586914 8.72827148 C17.03658221 11.29800323 17.0496419 13.86771747 17.0625 16.4375 C17.07087891 17.33533203 17.07925781 18.23316406 17.08789062 19.15820312 C17.09272461 20.43920898 17.09272461 20.43920898 17.09765625 21.74609375 C17.10551147 22.93223267 17.10551147 22.93223267 17.11352539 24.14233398 C17 26 17 26 16 27 C14.59651265 27.09860131 13.18819523 27.13078937 11.78125 27.1328125 C10.50701172 27.13474609 10.50701172 27.13474609 9.20703125 27.13671875 C7.86705078 27.13091797 7.86705078 27.13091797 6.5 27.125 C5.60667969 27.12886719 4.71335937 27.13273437 3.79296875 27.13671875 C2.94347656 27.13542969 2.09398437 27.13414062 1.21875 27.1328125 C0.43435547 27.13168457 -0.35003906 27.13055664 -1.15820312 27.12939453 C-3 27 -3 27 -4 26 C-4.08651611 24.58429877 -4.10704904 23.164405 -4.09765625 21.74609375 C-4.09443359 20.89208984 -4.09121094 20.03808594 -4.08789062 19.15820312 C-4.07951172 18.26037109 -4.07113281 17.36253906 -4.0625 16.4375 C-4.05798828 15.53580078 -4.05347656 14.63410156 -4.04882812 13.70507812 C-4.03700225 11.46998686 -4.0205222 9.23502563 -4 7 C-4.66 7 -5.32 7 -6 7 C-6 6.34 -6 5.68 -6 5 C-4.35 5 -2.7 5 -1 5 C-0.67 3.35 -0.34 1.7 0 0 Z " fill="#484F4F" transform="translate(666,350)"/>
<path d="M0 0 C2.97 0 5.94 0 9 0 C10.32 3.96 11.64 7.92 13 12 C14.79068573 9.3139714 15.66055791 7.3373411 16.625 4.3125 C16.88539063 3.50425781 17.14578125 2.69601563 17.4140625 1.86328125 C17.60742188 1.24839844 17.80078125 0.63351563 18 0 C20.64 0 23.28 0 26 0 C26 7.59 26 15.18 26 23 C24.35 23 22.7 23 21 23 C20.505 16.565 20.505 16.565 20 10 C18.68 14.29 17.36 18.58 16 23 C14.35 23 12.7 23 11 23 C8.69559987 18.70543612 7.21815438 14.68520915 6 10 C5.67 14.29 5.34 18.58 5 23 C3.35 23 1.7 23 0 23 C0 15.41 0 7.82 0 0 Z " fill="#ECF3F4" transform="translate(385,31)"/>
<path d="M0 0 C1.65 0 3.3 0 5 0 C5.66 2.97 6.32 5.94 7 9 C7.99 6.03 8.98 3.06 10 0 C11.65 0 13.3 0 15 0 C15.99 2.97 16.98 5.94 18 9 C18.66 6.03 19.32 3.06 20 0 C21.32 0 22.64 0 24 0 C23.48914188 6.43681228 22.27057103 11.95942424 20 18 C18.35 18 16.7 18 15 18 C14.01 15.03 13.02 12.06 12 9 C11.01 11.97 10.02 14.94 9 18 C7.35 18 5.7 18 4 18 C3.32678716 15.75194998 2.66165877 13.50147776 2 11.25 C1.62875 9.99703125 1.2575 8.7440625 0.875 7.453125 C0 4 0 4 0 0 Z " fill="#0BDA72" transform="translate(143,338)"/>
<path d="M0 0 C4.62 0 9.24 0 14 0 C14 1.65 14 3.3 14 5 C15.98 5 17.96 5 20 5 C20 5.66 20 6.32 20 7 C19.01 7 18.02 7 17 7 C17.00785522 7.85549438 17.00785522 7.85549438 17.01586914 8.72827148 C17.03658221 11.29800323 17.0496419 13.86771747 17.0625 16.4375 C17.07087891 17.33533203 17.07925781 18.23316406 17.08789062 19.15820312 C17.09272461 20.43920898 17.09272461 20.43920898 17.09765625 21.74609375 C17.10551147 22.93223267 17.10551147 22.93223267 17.11352539 24.14233398 C17 26 17 26 16 27 C14.59651265 27.09860131 13.18819523 27.13078937 11.78125 27.1328125 C10.50701172 27.13474609 10.50701172 27.13474609 9.20703125 27.13671875 C7.86705078 27.13091797 7.86705078 27.13091797 6.5 27.125 C5.60667969 27.12886719 4.71335937 27.13273437 3.79296875 27.13671875 C2.94347656 27.13542969 2.09398437 27.13414062 1.21875 27.1328125 C0.43435547 27.13168457 -0.35003906 27.13055664 -1.15820312 27.12939453 C-3 27 -3 27 -4 26 C-4.08651611 24.58429877 -4.10704904 23.164405 -4.09765625 21.74609375 C-4.09443359 20.89208984 -4.09121094 20.03808594 -4.08789062 19.15820312 C-4.07951172 18.26037109 -4.07113281 17.36253906 -4.0625 16.4375 C-4.05798828 15.53580078 -4.05347656 14.63410156 -4.04882812 13.70507812 C-4.03700225 11.46998686 -4.0205222 9.23502563 -4 7 C-4.66 7 -5.32 7 -6 7 C-6 6.34 -6 5.68 -6 5 C-4.35 5 -2.7 5 -1 5 C-0.67 3.35 -0.34 1.7 0 0 Z M-2 7 C-1.67 12.94 -1.34 18.88 -1 25 C3.95 25 8.9 25 14 25 C14.33 19.06 14.66 13.12 15 7 C9.39 7 3.78 7 -2 7 Z " fill="#F2F2F2" transform="translate(666,350)"/>
<path d="M0 0 C1.65 0 3.3 0 5 0 C5.33 4.29 5.66 8.58 6 13 C6.99 11.35 7.98 9.7 9 8 C12.6875 7.6875 12.6875 7.6875 16 8 C14.35 10.64 12.7 13.28 11 16 C11.825 17.134375 12.65 18.26875 13.5 19.4375 C16 22.875 16 22.875 16 24 C13.25 24.3125 13.25 24.3125 10 24 C7.625 21.5 7.625 21.5 6 19 C5.67 20.65 5.34 22.3 5 24 C3.35 24 1.7 24 0 24 C0 16.08 0 8.16 0 0 Z " fill="#F3F5ED" transform="translate(489,30)"/>
<path d="M0 0 C1.98 0 3.96 0 6 0 C6.99 2.31 7.98 4.62 9 7 C9.99 4.69 10.98 2.38 12 0 C13.65 0 15.3 0 17 0 C15.79920939 4.69399966 14.2479144 9.2064883 12.5625 13.75 C12.15128906 14.85859375 11.74007813 15.9671875 11.31640625 17.109375 C10.10533862 19.76869265 9.35796524 21.31657705 7 23 C3.3125 23.1875 3.3125 23.1875 0 23 C0 21.68 0 20.36 0 19 C1.65 18.34 3.3 17.68 5 17 C4.50109419 12.13566836 2.92236169 8.31084936 0.83984375 3.953125 C0 2 0 2 0 0 Z " fill="#EBF0ED" transform="translate(414,38)"/>
<path d="M0 0 C8.3984375 -0.1953125 8.3984375 -0.1953125 11 0 C13.42522207 2.42522207 13.29629254 3.1720679 13.3125 6.5 C13.33763672 7.69109375 13.33763672 7.69109375 13.36328125 8.90625 C13.24339844 9.5971875 13.12351562 10.288125 13 11 C9.77208445 13.1519437 8.71599191 13.20086443 5 13 C5 14.98 5 16.96 5 19 C3.35 19 1.7 19 0 19 C0 12.73 0 6.46 0 0 Z " fill="#0BD872" transform="translate(540,343)"/>
<path d="M0 0 C1.4370809 -0.05422947 2.87475462 -0.09289723 4.3125 -0.125 C5.11300781 -0.14820313 5.91351563 -0.17140625 6.73828125 -0.1953125 C9 0 9 0 12 2 C12.29296875 5.2578125 12.29296875 5.2578125 12.1875 9.125 C12.16042969 10.40632813 12.13335937 11.68765625 12.10546875 13.0078125 C12.07066406 13.99523438 12.03585937 14.98265625 12 16 C10.04196493 16.05389087 8.08351091 16.09274217 6.125 16.125 C4.48917969 16.15980469 4.48917969 16.15980469 2.8203125 16.1953125 C0 16 0 16 -2 14 C-2.3125 11 -2.3125 11 -2 8 C1.4352048 5.70986347 2.985331 5.82157027 7 6 C7 5.34 7 4.68 7 4 C4.36 4.33 1.72 4.66 -1 5 C-0.67 3.35 -0.34 1.7 0 0 Z " fill="#EFF2F3" transform="translate(459,38)"/>
<path d="M0 0 C4.33333333 0 8.66666667 0 13 0 C14.2684375 -0.061875 14.2684375 -0.061875 15.5625 -0.125 C18 0 18 0 20 2 C20.1953125 4.6015625 20.1953125 4.6015625 20.125 7.625 C20.10695313 8.62789063 20.08890625 9.63078125 20.0703125 10.6640625 C20.04710937 11.43492187 20.02390625 12.20578125 20 13 C18.35 13 16.7 13 15 13 C15 9.7 15 6.4 15 3 C14.01 3.495 14.01 3.495 13 4 C12.53348793 6.12576782 12.53348793 6.12576782 12.375 8.5625 C12.30023438 9.38878906 12.22546875 10.21507812 12.1484375 11.06640625 C12.09945313 11.70449219 12.05046875 12.34257812 12 13 C10.68 13 9.36 13 8 13 C7.67 10.03 7.34 7.06 7 4 C6.34 4 5.68 4 5 4 C4.67 6.97 4.34 9.94 4 13 C2.68 13 1.36 13 0 13 C0 8.71 0 4.42 0 0 Z " fill="#04E174" transform="translate(297,343)"/>
<path d="M0 0 C1.32 0 2.64 0 4 0 C4 2.31 4 4.62 4 7 C5.11375 6.79375 6.2275 6.5875 7.375 6.375 C9.169375 6.189375 9.169375 6.189375 11 6 C13.59335905 8.59335905 13.27726563 10.48747032 13.36328125 14.02734375 C12.88195122 16.64101756 12.17483893 17.48420317 10 19 C7.51953125 19.29296875 7.51953125 19.29296875 4.8125 19.1875 C3.224375 19.125625 1.63625 19.06375 0 19 C0 12.73 0 6.46 0 0 Z " fill="#05E074" transform="translate(489,337)"/>
<path d="M0 0 C1.588125 -0.061875 3.17625 -0.12375 4.8125 -0.1875 C6.15248047 -0.23970703 6.15248047 -0.23970703 7.51953125 -0.29296875 C10 0 10 0 11.80078125 1.29296875 C13.79958597 4.13817287 13.35896649 6.64964607 13 10 C11.8125 11.9375 11.8125 11.9375 10 13 C7.3125 13.1875 7.3125 13.1875 5 13 C4.67 14.98 4.34 16.96 4 19 C2.68 19 1.36 19 0 19 C0 12.73 0 6.46 0 0 Z " fill="#04DF72" transform="translate(525,343)"/>
<path d="M0 0 C1.32 0 2.64 0 4 0 C4.33 1.98 4.66 3.96 5 6 C6.134375 6.12375 7.26875 6.2475 8.4375 6.375 C9.613125 6.58125 10.78875 6.7875 12 7 C13.52491998 10.04983996 13.23562548 12.6423369 13 16 C11.80859375 17.7109375 11.80859375 17.7109375 10 19 C7.51953125 19.29296875 7.51953125 19.29296875 4.8125 19.1875 C3.224375 19.125625 1.63625 19.06375 0 19 C0 12.73 0 6.46 0 0 Z " fill="#04E073" transform="translate(360,337)"/>
<path d="M0 0 C1.32 0 2.64 0 4 0 C4.66 1.32 5.32 2.64 6 4 C6.33 2.68 6.66 1.36 7 0 C8.65 0 10.3 0 12 0 C12.33 1.32 12.66 2.64 13 4 C13.66 2.68 14.32 1.36 15 0 C16.32 0 17.64 0 19 0 C18.01 4.29 17.02 8.58 16 13 C14.35 13 12.7 13 11 13 C10.34 11.68 9.68 10.36 9 9 C8.67 10.32 8.34 11.64 8 13 C6.02 13 4.04 13 2 13 C-0.28571429 4.57142857 -0.28571429 4.57142857 0 0 Z " fill="#0CD772" transform="translate(455,343)"/>
<path d="M0 0 C1.65 0 3.3 0 5 0 C5.33 1.65 5.66 3.3 6 5 C6.66 3.35 7.32 1.7 8 0 C9.65 0 11.3 0 13 0 C13.33 1.32 13.66 2.64 14 4 C14.66 2.68 15.32 1.36 16 0 C17.32 0 18.64 0 20 0 C19.01 4.29 18.02 8.58 17 13 C15.35 13 13.7 13 12 13 C11.34 11.02 10.68 9.04 10 7 C9.34 8.98 8.68 10.96 8 13 C6.35 13 4.7 13 3 13 C2.01 8.71 1.02 4.42 0 0 Z " fill="#0BD972" transform="translate(325,343)"/>
<path d="M0 0 C5.94 0 11.88 0 18 0 C18 1.32 18 2.64 18 4 C16.02 4 14.04 4 12 4 C12 10.27 12 16.54 12 23 C10.35 23 8.7 23 7 23 C7 16.73 7 10.46 7 4 C4.69 4 2.38 4 0 4 C0 2.68 0 1.36 0 0 Z " fill="#FCFCF8" transform="translate(440,31)"/>
<path d="M0 0 C0.99 0.66 1.98 1.32 3 2 C3.64608076 8.78384798 3.64608076 8.78384798 1.9375 12 C-1.13215135 13.58433618 -3.61681143 13.36248449 -7 13 C-8.9375 11.9375 -8.9375 11.9375 -10 10 C-10.36528977 6.5906288 -10.6140629 4.11976176 -8.9375 1.0625 C-5.91362524 -0.5957539 -3.37613017 -0.30144019 0 0 Z " fill="#07DF75" transform="translate(433,343)"/>
<path d="M0 0 C0.99 0.66 1.98 1.32 3 2 C3.64608076 8.78384798 3.64608076 8.78384798 1.9375 12 C-1.13215135 13.58433618 -3.61681143 13.36248449 -7 13 C-8.9375 11.9375 -8.9375 11.9375 -10 10 C-10.36528977 6.5906288 -10.6140629 4.11976176 -8.9375 1.0625 C-5.91362524 -0.5957539 -3.37613017 -0.30144019 0 0 Z " fill="#07DF75" transform="translate(291,343)"/>
<path d="M0 0 C1.8871875 0.061875 1.8871875 0.061875 3.8125 0.125 C3.8125 1.445 3.8125 2.765 3.8125 4.125 C2.1625 4.455 0.5125 4.785 -1.1875 5.125 C0.7925 6.115 2.7725 7.105 4.8125 8.125 C5 11 5 11 4.8125 14.125 C1.60869983 16.26086678 0.79310033 16.35632175 -2.875 16.25 C-4.08736328 16.22292969 -4.08736328 16.22292969 -5.32421875 16.1953125 C-5.93910156 16.17210938 -6.55398438 16.14890625 -7.1875 16.125 C-7.1875 14.475 -7.1875 12.825 -7.1875 11.125 C-4.8775 11.455 -2.5675 11.785 -0.1875 12.125 C-0.1875 11.465 -0.1875 10.805 -0.1875 10.125 C-0.97125 10.00125 -1.755 9.8775 -2.5625 9.75 C-5.1875 9.125 -5.1875 9.125 -7.1875 7.125 C-7.5 4.625 -7.5 4.625 -7.1875 2.125 C-4.09861478 0.06574319 -3.47814073 -0.1140374 0 0 Z " fill="#EFF2F1" transform="translate(513.1875,37.875)"/>
<path d="M0 0 C1.8871875 0.061875 1.8871875 0.061875 3.8125 0.125 C3.8125 1.445 3.8125 2.765 3.8125 4.125 C2.1625 4.455 0.5125 4.785 -1.1875 5.125 C0.7925 6.115 2.7725 7.105 4.8125 8.125 C5 11 5 11 4.8125 14.125 C1.60869983 16.26086678 0.79310033 16.35632175 -2.875 16.25 C-4.08736328 16.22292969 -4.08736328 16.22292969 -5.32421875 16.1953125 C-5.93910156 16.17210938 -6.55398438 16.14890625 -7.1875 16.125 C-7.1875 14.475 -7.1875 12.825 -7.1875 11.125 C-4.8775 11.455 -2.5675 11.785 -0.1875 12.125 C-0.1875 11.465 -0.1875 10.805 -0.1875 10.125 C-0.97125 10.00125 -1.755 9.8775 -2.5625 9.75 C-5.1875 9.125 -5.1875 9.125 -7.1875 7.125 C-7.5 4.625 -7.5 4.625 -7.1875 2.125 C-4.09861478 0.06574319 -3.47814073 -0.1140374 0 0 Z " fill="#EFF2F1" transform="translate(481.1875,37.875)"/>
<path d="M0 0 C8.3984375 -0.1953125 8.3984375 -0.1953125 11 0 C13 2 13 2 13.1953125 4.6015625 C13.17210937 5.59929687 13.14890625 6.59703125 13.125 7.625 C13.10695312 8.62789063 13.08890625 9.63078125 13.0703125 10.6640625 C13.03550781 11.82035156 13.03550781 11.82035156 13 13 C11.68 13 10.36 13 9 13 C8.67 10.03 8.34 7.06 8 4 C7.34 4 6.68 4 6 4 C5.67 6.97 5.34 9.94 5 13 C3.35 13 1.7 13 0 13 C0 8.71 0 4.42 0 0 Z " fill="#04DF72" transform="translate(181,343)"/>
<path d="M0 0 C6.46994034 -0.36622304 6.46994034 -0.36622304 8.71875 1.1875 C10.44334597 3.62717234 10.30267769 5.23127272 10.1875 8.1875 C10.16042969 9.08855469 10.13335937 9.98960937 10.10546875 10.91796875 C10.07066406 11.60503906 10.03585938 12.29210937 10 13 C9.278125 12.814375 8.55625 12.62875 7.8125 12.4375 C5.01214155 11.83247571 5.01214155 11.83247571 2.3125 12.5625 C1.549375 12.706875 0.78625 12.85125 0 13 C-0.66 12.34 -1.32 11.68 -2 11 C-1.9375 8.5 -1.9375 8.5 -1 6 C1.5625 4.6875 1.5625 4.6875 4 4 C2.35 4 0.7 4 -1 4 C-0.67 2.68 -0.34 1.36 0 0 Z " fill="#0ECB6C" transform="translate(169,343)"/>
<path d="M0 0 C3.375 -0.125 3.375 -0.125 7 0 C9 2 9 2 9.1953125 4.6015625 C9.17210937 5.59929687 9.14890625 6.59703125 9.125 7.625 C9.10695313 8.62789063 9.08890625 9.63078125 9.0703125 10.6640625 C9.03550781 11.82035156 9.03550781 11.82035156 9 13 C7.37536158 13.05395478 5.75021459 13.09277195 4.125 13.125 C3.22007812 13.14820313 2.31515625 13.17140625 1.3828125 13.1953125 C-1 13 -1 13 -3 11 C-2.44444444 6.44444444 -2.44444444 6.44444444 -1 5 C0.99958364 4.95919217 3.00045254 4.95745644 5 5 C5 4.34 5 3.68 5 3 C3.02 3.33 1.04 3.66 -1 4 C-0.67 2.68 -0.34 1.36 0 0 Z " fill="#04E073" transform="translate(513,343)"/>
<path d="M0 0 C3.375 -0.125 3.375 -0.125 7 0 C9 2 9 2 9.1953125 4.6015625 C9.17210937 5.59929687 9.14890625 6.59703125 9.125 7.625 C9.10695312 8.62789063 9.08890625 9.63078125 9.0703125 10.6640625 C9.03550781 11.82035156 9.03550781 11.82035156 9 13 C7.37536158 13.05395478 5.75021459 13.09277195 4.125 13.125 C3.22007812 13.14820313 2.31515625 13.17140625 1.3828125 13.1953125 C-1 13 -1 13 -3 11 C-2.44444444 6.44444444 -2.44444444 6.44444444 -1 5 C0.99958364 4.95919217 3.00045254 4.95745644 5 5 C5 4.34 5 3.68 5 3 C3.02 3.33 1.04 3.66 -1 4 C-0.67 2.68 -0.34 1.36 0 0 Z " fill="#04E073" transform="translate(215,343)"/>
<path d="M0 0 C3.39589415 0.52244525 5.91259157 0.21515895 9.25 -0.5 C8.92 0.49 8.59 1.48 8.25 2.5 C8.91 2.83 9.57 3.16 10.25 3.5 C10.58 2.51 10.91 1.52 11.25 0.5 C13.23 0.17 15.21 -0.16 17.25 -0.5 C17.25 0.16 17.25 0.82 17.25 1.5 C16.26 1.83 15.27 2.16 14.25 2.5 C14.25 3.16 14.25 3.82 14.25 4.5 C15.24 4.83 16.23 5.16 17.25 5.5 C17.25 6.16 17.25 6.82 17.25 7.5 C12.58333333 7.5 7.91666667 7.5 3.25 7.5 C3.25 6.84 3.25 6.18 3.25 5.5 C2.92 5.5 2.59 5.5 2.25 5.5 C2.25 6.16 2.25 6.82 2.25 7.5 C-0.06 7.17 -2.37 6.84 -4.75 6.5 C-4.75 4.52 -4.75 2.54 -4.75 0.5 C-2.75 -0.5 -2.75 -0.5 0 0 Z " fill="#E3EDED" transform="translate(425.75,140.5)"/>
<path d="M0 0 C2 2 2 2 2.125 4.625 C2.08375 5.40875 2.0425 6.1925 2 7 C-0.31 7 -2.62 7 -5 7 C-4.67 7.66 -4.34 8.32 -4 9 C-2.35 9 -0.7 9 1 9 C0.67 10.32 0.34 11.64 0 13 C-6.3833448 13.48176187 -6.3833448 13.48176187 -9 11.4375 C-10.43135511 7.94857191 -9.933966 5.60244028 -9 2 C-5.54754176 -0.30163882 -4.05261287 -0.34490322 0 0 Z " fill="#0BD773" transform="translate(412,343)"/>
<path d="M0 0 C1.875 1.25 1.875 1.25 3 3 C3 4.32 3 5.64 3 7 C0.36 7 -2.28 7 -5 7 C-4.67 7.66 -4.34 8.32 -4 9 C-2.02 9 -0.04 9 2 9 C1.67 10.32 1.34 11.64 1 13 C-5.34507042 13.35915493 -5.34507042 13.35915493 -7.9375 11.9375 C-9.6140629 8.88023824 -9.36528977 6.4093712 -9 3 C-6.84332735 -0.71426957 -4.0099826 -0.50124783 0 0 Z " fill="#09D873" transform="translate(484,343)"/>
<path d="M0 0 C1.875 1.25 1.875 1.25 3 3 C3 4.32 3 5.64 3 7 C0.36 7 -2.28 7 -5 7 C-4.67 7.66 -4.34 8.32 -4 9 C-2.02 9 -0.04 9 2 9 C1.67 10.32 1.34 11.64 1 13 C-5.34507042 13.35915493 -5.34507042 13.35915493 -7.9375 11.9375 C-9.6140629 8.88023824 -9.36528977 6.4093712 -9 3 C-6.84332735 -0.71426957 -4.0099826 -0.50124783 0 0 Z " fill="#08D872" transform="translate(355,343)"/>
<path d="M0 0 C1.32 0 2.64 0 4 0 C4.33 2.97 4.66 5.94 5 9 C5.66 9 6.32 9 7 9 C7.33 6.03 7.66 3.06 8 0 C9.32 0 10.64 0 12 0 C12 4.29 12 8.58 12 13 C10.39125 13.04125 8.7825 13.0825 7.125 13.125 C6.22007812 13.14820313 5.31515625 13.17140625 4.3828125 13.1953125 C2 13 2 13 0 11 C-0.1953125 8.3984375 -0.1953125 8.3984375 -0.125 5.375 C-0.10695312 4.37210937 -0.08890625 3.36921875 -0.0703125 2.3359375 C-0.04710937 1.56507813 -0.02390625 0.79421875 0 0 Z " fill="#04E173" transform="translate(246,343)"/>
<path d="M0 0 C1.32 0.66 2.64 1.32 4 2 C4 6 4 6 2.20703125 8.359375 C1.41683594 9.14828125 0.62664063 9.9371875 -0.1875 10.75 C-0.96480469 11.54921875 -1.74210938 12.3484375 -2.54296875 13.171875 C-5.33272194 15.24755782 -6.60840205 15.40964238 -10 15 C-10.3125 12.83203125 -10.3125 12.83203125 -10 10 C-7.8125 7.32421875 -7.8125 7.32421875 -5 4.6875 C-4.071875 3.80449219 -3.14375 2.92148437 -2.1875 2.01171875 C-1.1046875 1.01591797 -1.1046875 1.01591797 0 0 Z " fill="#0CC770" transform="translate(751,359)"/>
<path d="M0 0 C1.32 0 2.64 0 4 0 C4.33 7.92 4.66 15.84 5 24 C3.35 24 1.7 24 0 24 C0 16.08 0 8.16 0 0 Z " fill="#F6FFFC" transform="translate(489,30)"/>
<path d="M0 0 C0 1.32 0 2.64 0 4 C0.99 4 1.98 4 3 4 C3 4.99 3 5.98 3 7 C2.01 7 1.02 7 0 7 C0 9.31 0 11.62 0 14 C0.99 14 1.98 14 3 14 C3 14.99 3 15.98 3 17 C0.125 17.125 0.125 17.125 -3 17 C-5 15 -5 15 -5.1953125 13.0546875 C-5.09765625 10.02734375 -5.09765625 10.02734375 -5 7 C-5.66 7 -6.32 7 -7 7 C-7 6.01 -7 5.02 -7 4 C-6.34 4 -5.68 4 -5 4 C-5 3.01 -5 2.02 -5 1 C-3 0 -3 0 0 0 Z " fill="#0BD771" transform="translate(399,339)"/>
<path d="M0 0 C6.625 -0.25 6.625 -0.25 10 2 C9.25 8.75 9.25 8.75 7 11 C3.375 11.125 3.375 11.125 0 11 C0 7.37 0 3.74 0 0 Z " fill="#EEE5C4" transform="translate(410,137)"/>
<path d="M0 0 C1.134375 0.020625 2.26875 0.04125 3.4375 0.0625 C3.1075 1.3825 2.7775 2.7025 2.4375 4.0625 C1.4475 4.0625 0.4575 4.0625 -0.5625 4.0625 C1.0875 5.0525 2.7375 6.0425 4.4375 7.0625 C4.0625 9.5 4.0625 9.5 3.4375 12.0625 C0.48085481 13.5408226 -2.30479737 13.12282783 -5.5625 13.0625 C-5.5625 11.7425 -5.5625 10.4225 -5.5625 9.0625 C-3.0875 9.5575 -3.0875 9.5575 -0.5625 10.0625 C-0.5625 9.4025 -0.5625 8.7425 -0.5625 8.0625 C-3.0375 7.0725 -3.0375 7.0725 -5.5625 6.0625 C-4.48849278 0.07874549 -4.48849278 0.07874549 0 0 Z " fill="#08DD74" transform="translate(265.5625,342.9375)"/>
<path d="M0 0 C0.99 0 1.98 0 3 0 C3 1.32 3 2.64 3 4 C3.99 4 4.98 4 6 4 C6 4.99 6 5.98 6 7 C5.01 7 4.02 7 3 7 C3 9.31 3 11.62 3 14 C3.99 14 4.98 14 6 14 C6 14.99 6 15.98 6 17 C4.00045254 17.04254356 1.99958364 17.04080783 0 17 C-1 16 -1 16 -1.09765625 13.93359375 C-1.08025391 12.69802734 -1.08025391 12.69802734 -1.0625 11.4375 C-1.05347656 10.61121094 -1.04445313 9.78492188 -1.03515625 8.93359375 C-1.02355469 8.29550781 -1.01195312 7.65742188 -1 7 C-1.66 7 -2.32 7 -3 7 C-3 6.01 -3 5.02 -3 4 C-2.34 4 -1.68 4 -1 4 C-0.67 2.68 -0.34 1.36 0 0 Z " fill="#04E074" transform="translate(274,339)"/>
<path d="M0 0 C0.99 0 1.98 0 3 0 C3 1.32 3 2.64 3 4 C3.99 4 4.98 4 6 4 C6 4.99 6 5.98 6 7 C5.01 7 4.02 7 3 7 C3 9.31 3 11.62 3 14 C3.99 14 4.98 14 6 14 C6 14.99 6 15.98 6 17 C4.00045254 17.04254356 1.99958364 17.04080783 0 17 C-1 16 -1 16 -1.09765625 13.93359375 C-1.08025391 12.69802734 -1.08025391 12.69802734 -1.0625 11.4375 C-1.05347656 10.61121094 -1.04445312 9.78492188 -1.03515625 8.93359375 C-1.02355469 8.29550781 -1.01195312 7.65742188 -1 7 C-1.66 7 -2.32 7 -3 7 C-3 6.01 -3 5.02 -3 4 C-2.34 4 -1.68 4 -1 4 C-0.67 2.68 -0.34 1.36 0 0 Z " fill="#04E074" transform="translate(199,339)"/>
<path d="M0 0 C0 1.32 0 2.64 0 4 C-1.65 3.67 -3.3 3.34 -5 3 C-5 3.66 -5 4.32 -5 5 C-3.68 5.33 -2.36 5.66 -1 6 C-0.375 8.375 -0.375 8.375 0 11 C-2 13 -2 13 -5.625 13.125 C-6.73875 13.08375 -7.8525 13.0425 -9 13 C-8.67 11.68 -8.34 10.36 -8 9 C-6.02 9.495 -6.02 9.495 -4 10 C-4 9.34 -4 8.68 -4 8 C-4.639375 7.855625 -5.27875 7.71125 -5.9375 7.5625 C-8 7 -8 7 -9 6 C-9.04063832 4.33382885 -9.042721 2.66611905 -9 1 C-6.04335481 -0.4783226 -3.25770263 -0.06032783 0 0 Z " fill="#06DE74" transform="translate(384,343)"/>
<path d="M0 0 C0 1.32 0 2.64 0 4 C-1.65 4 -3.3 4 -5 4 C-5.33 5.32 -5.66 6.64 -6 8 C-3.92446352 8.5534764 -2.15634036 9 0 9 C-0.33 10.32 -0.66 11.64 -1 13 C-7.3782235 13.36103152 -7.3782235 13.36103152 -9.9375 11.875 C-11.52990283 9.06487736 -11.45319325 7.17235276 -11 4 C-8.02080717 -0.52837311 -5.15974216 -0.39690324 0 0 Z " fill="#0ADA73" transform="translate(244,343)"/>
<path d="M0 0 C1.32 0 2.64 0 4 0 C4 2.31 4 4.62 4 7 C4.66 7.33 5.32 7.66 6 8 C5 15.42857143 5 15.42857143 4 19 C2.68 19 1.36 19 0 19 C0 12.73 0 6.46 0 0 Z " fill="#08E277" transform="translate(489,337)"/>
<path d="M0 0 C1.32 0 2.64 0 4 0 C4 2.31 4 4.62 4 7 C4.66 7.33 5.32 7.66 6 8 C5.835 9.11375 5.67 10.2275 5.5 11.375 C4.9544542 14.72032033 4.9544542 14.72032033 5 17 C4.34 17 3.68 17 3 17 C3 17.66 3 18.32 3 19 C2.01 19 1.02 19 0 19 C0 12.73 0 6.46 0 0 Z " fill="#06E375" transform="translate(360,337)"/>
<path d="M0 0 C0.598125 0.20625 1.19625 0.4125 1.8125 0.625 C1.4825 1.285 1.1525 1.945 0.8125 2.625 C1.8025 2.625 2.7925 2.625 3.8125 2.625 C4.1425 4.935 4.4725 7.245 4.8125 9.625 C-1.2421875 9.8203125 -1.2421875 9.8203125 -3.1875 9.625 C-5.1875 7.625 -5.1875 7.625 -5.5 4.625 C-5.396875 3.635 -5.29375 2.645 -5.1875 1.625 C-2.1875 -0.375 -2.1875 -0.375 0 0 Z " fill="#D0D2D1" transform="translate(462.1875,44.375)"/>
<path d="M0 0 C0.66 0 1.32 0 2 0 C2.3403125 1.670625 2.3403125 1.670625 2.6875 3.375 C3.60623658 7.16038373 3.60623658 7.16038373 6.625 8.4375 C7.40875 8.623125 8.1925 8.80875 9 9 C9 9.66 9 10.32 9 11 C3.25 11.125 3.25 11.125 1 10 C0.67 11.32 0.34 12.64 0 14 C-2.475 10.04 -2.475 10.04 -5 6 C-3.38405168 3.95880212 -1.7143618 1.95927063 0 0 Z " fill="#322B2B" transform="translate(504,39)"/>
<path d="M0 0 C2.97 0.495 2.97 0.495 6 1 C5.73958333 3.01822917 5.47916667 5.03645833 5.21875 7.0546875 C4.9627515 9.00498344 4.9627515 9.00498344 5 11 C4.34 11 3.68 11 3 11 C3 13.64 3 16.28 3 19 C2.01 19 1.02 19 0 19 C0 12.73 0 6.46 0 0 Z " fill="#06E477" transform="translate(525,343)"/>
<path d="M0 0 C2.33294775 -0.04241723 4.66702567 -0.04092937 7 0 C8 1 8 1 8.0625 4.0625 C8.041875 5.031875 8.02125 6.00125 8 7 C6.35 7.33 4.7 7.66 3 8 C3 9.32 3 10.64 3 12 C2.01 12 1.02 12 0 12 C0 8.04 0 4.08 0 0 Z " fill="#F7F8F0" transform="translate(456,140)"/>
<path d="M0 0 C5.625 -0.25 5.625 -0.25 9 2 C9.375 4.4375 9.375 4.4375 9 7 C7.5625 8.625 7.5625 8.625 6 10 C5.67 10.99 5.34 11.98 5 13 C3.68 13 2.36 13 1 13 C1.55728913 9.65626525 2.35173889 6.96687001 4 4 C2.35 4.33 0.7 4.66 -1 5 C-0.67 3.35 -0.34 1.7 0 0 Z " fill="#09DB72" transform="translate(556,338)"/>
<path d="M0 0 C0.99 0 1.98 0 3 0 C3 0.66 3 1.32 3 2 C4.65 2 6.3 2 8 2 C8 4.64 8 7.28 8 10 C5.69 10 3.38 10 1 10 C-1.42857143 3.71428571 -1.42857143 3.71428571 0 0 Z " fill="#F0F0E7" transform="translate(466,138)"/>
<path d="M0 0 C1.65 0 3.3 0 5 0 C5 4.29 5 8.58 5 13 C3.35 13 1.7 13 0 13 C0 8.71 0 4.42 0 0 Z " fill="#10D26E" transform="translate(386,343)"/>
<path d="M0 0 C3.53571429 0.53571429 3.53571429 0.53571429 5 2 C5.07226502 3.85287502 5.0838122 5.70833878 5.0625 7.5625 C5.05347656 8.57441406 5.04445313 9.58632813 5.03515625 10.62890625 C5.02355469 11.41136719 5.01195312 12.19382812 5 13 C3.35 13 1.7 13 0 13 C0 9.7 0 6.4 0 3 C-0.66 2.67 -1.32 2.34 -2 2 C-1.34 1.34 -0.68 0.68 0 0 Z " fill="#0AD770" transform="translate(312,343)"/>
<path d="M0 0 C2.64 0 5.28 0 8 0 C8 0.99 8 1.98 8 3 C7.01 3.33 6.02 3.66 5 4 C4.67 6.97 4.34 9.94 4 13 C2.68 13 1.36 13 0 13 C0 8.71 0 4.42 0 0 Z " fill="#05E375" transform="translate(439,343)"/>
<path d="M0 0 C0.33 0.66 0.66 1.32 1 2 C2.7015625 1.9690625 2.7015625 1.9690625 4.4375 1.9375 C8 2 8 2 9 3 C9.04080783 4.99958364 9.04254356 7.00045254 9 9 C6.03 9 3.06 9 0 9 C-1.125 2.25 -1.125 2.25 0 0 Z " fill="#6C6D6B" transform="translate(388,376)"/>
<path d="M0 0 C1.32 0 2.64 0 4 0 C5.32229189 2.64458379 5.09677194 4.67761301 5.0625 7.625 C5.05347656 8.62789063 5.04445312 9.63078125 5.03515625 10.6640625 C5.02355469 11.43492187 5.01195312 12.20578125 5 13 C3.35 13 1.7 13 0 13 C0 8.71 0 4.42 0 0 Z " fill="#0ED471" transform="translate(181,343)"/>
<path d="M0 0 C0.66 0.66 1.32 1.32 2 2 C1.44444444 6.55555556 1.44444444 6.55555556 0 8 C-2.33944736 7.71269945 -4.6739143 7.38063221 -7 7 C-7 5.02 -7 3.04 -7 1 C-4.48718205 -0.25640898 -2.78302919 -0.20872719 0 0 Z " fill="#EAF4EF" transform="translate(483,140)"/>
<path d="M0 0 C0.66 0 1.32 0 2 0 C0.50923566 3.2826932 -1.38620321 5.93077441 -3.625 8.75 C-4.25664063 9.54921875 -4.88828125 10.3484375 -5.5390625 11.171875 C-6.02117188 11.77515625 -6.50328125 12.3784375 -7 13 C-10.20162702 12.40137646 -10.91936515 12.08735442 -13.25 9.5625 C-15 7 -15 7 -15 5 C-12.50638429 6.20381448 -10.31856917 7.45428722 -8 9 C-7.44570313 8.3503125 -6.89140625 7.700625 -6.3203125 7.03125 C-5.59585938 6.1959375 -4.87140625 5.360625 -4.125 4.5 C-3.40570312 3.6646875 -2.68640625 2.829375 -1.9453125 1.96875 C-1.30335938 1.3190625 -0.66140625 0.669375 0 0 Z " fill="#08D073" transform="translate(720,362)"/>
<path d="M0 0 C0.33 0 0.66 0 1 0 C1 3.3 1 6.6 1 10 C-2.375 10.125 -2.375 10.125 -6 10 C-6.66 9.34 -7.32 8.68 -8 8 C-7.625 5.875 -7.625 5.875 -7 4 C-4.92446352 3.4465236 -3.15634036 3 -1 3 C-0.67 2.01 -0.34 1.02 0 0 Z " fill="#3E5B4C" transform="translate(245,343)"/>
<path d="M0 0 C0.886875 0.185625 1.77375 0.37125 2.6875 0.5625 C5.85178811 0.98042484 7.94839642 0.80777742 11 0 C11.33 0.66 11.66 1.32 12 2 C10.68 1.67 9.36 1.34 8 1 C8 1.66 8 2.32 8 3 C9.32 3.33 10.64 3.66 12 4 C11.67 4.99 11.34 5.98 11 7 C10.195625 6.814375 9.39125 6.62875 8.5625 6.4375 C7.716875 6.293125 6.87125 6.14875 6 6 C5.67 6.33 5.34 6.66 5 7 C3.33382885 7.04063832 1.66611905 7.042721 0 7 C0.99 6.67 1.98 6.34 3 6 C3 5.34 3 4.68 3 4 C2.01 3.67 1.02 3.34 0 3 C0.99 3 1.98 3 3 3 C3 2.34 3 1.68 3 1 C2.01 1.33 1.02 1.66 0 2 C0 1.34 0 0.68 0 0 Z " fill="#BAB1AD" transform="translate(197,175)"/>
<path d="M0 0 C3.27275026 0 5.846632 0.29925156 9 1 C9 2.65 9 4.3 9 6 C5.846632 6.70074844 3.27275026 7 0 7 C0 4.69 0 2.38 0 0 Z " fill="#727471" transform="translate(437,378)"/>
<path d="M0 0 C2.33944736 0.28730055 4.6739143 0.61936779 7 1 C7 1.99 7 2.98 7 4 C6.34 4 5.68 4 5 4 C5 5.32 5 6.64 5 8 C2.625 8.125 2.625 8.125 0 8 C-0.66 7.34 -1.32 6.68 -2 6 C-1.44444444 1.44444444 -1.44444444 1.44444444 0 0 Z " fill="#0DD975" transform="translate(512,348)"/>
<path d="M0 0 C2.33944736 0.28730055 4.6739143 0.61936779 7 1 C7 1.99 7 2.98 7 4 C6.34 4 5.68 4 5 4 C5 5.32 5 6.64 5 8 C2.625 8.125 2.625 8.125 0 8 C-0.66 7.34 -1.32 6.68 -2 6 C-1.44444444 1.44444444 -1.44444444 1.44444444 0 0 Z " fill="#0DD975" transform="translate(214,348)"/>
<path d="M0 0 C1.65 0.33 3.3 0.66 5 1 C6.06546953 4.1964086 6.07427838 6.65747276 6 10 C3 10 0 10 -3 10 C-3.625 6.625 -3.625 6.625 -4 3 C-3.34 2.34 -2.68 1.68 -2 1 C-0.90341064 4.28976808 -1.20046862 5.71303767 -2 9 C-1.34 9 -0.68 9 0 9 C0 6.03 0 3.06 0 0 Z " fill="#98919C" transform="translate(224,172)"/>
<path d="M0 0 C2.97 0 5.94 0 9 0 C9 2.64 9 5.28 9 8 C8.01 8 7.02 8 6 8 C6 6.02 6 4.04 6 2 C5.01 2 4.02 2 3 2 C3 3.98 3 5.96 3 8 C2.01 8 1.02 8 0 8 C0 5.36 0 2.72 0 0 Z " fill="#F0EAD7" transform="translate(445,140)"/>
<path d="M0 0 C0.66 0 1.32 0 2 0 C2 3.3 2 6.6 2 10 C0.00045254 10.04254356 -2.00041636 10.04080783 -4 10 C-5 9 -5 9 -5.0625 6.4375 C-5.041875 5.633125 -5.02125 4.82875 -5 4 C-3.35 3.67 -1.7 3.34 0 3 C0 2.01 0 1.02 0 0 Z " fill="#757A79" transform="translate(244,375)"/>
<path d="M0 0 C2.33294775 -0.04241723 4.66702567 -0.04092937 7 0 C8 1 8 1 8.0625 4.5625 C8.041875 5.696875 8.02125 6.83125 8 8 C7.01 8 6.02 8 5 8 C5 6.02 5 4.04 5 2 C4.34 2 3.68 2 3 2 C3 3.98 3 5.96 3 8 C2.01 8 1.02 8 0 8 C0 5.36 0 2.72 0 0 Z " fill="#E4EFF1" transform="translate(486,140)"/>
<path d="M0 0 C0.93423645 3.01031744 1.04449911 3.86650268 0 7 C-2.31 6.67 -4.62 6.34 -7 6 C-7 4.02 -7 2.04 -7 0 C-4.3333581 -1.33332095 -2.83319697 -0.67102033 0 0 Z " fill="#EBEEE9" transform="translate(150,141)"/>
<path d="M0 0 C0 2.64 0 5.28 0 8 C-0.99 8.495 -0.99 8.495 -2 9 C-2 8.34 -2 7.68 -2 7 C-3.65 6.67 -5.3 6.34 -7 6 C-7 4.35 -7 2.7 -7 1 C-4.53721199 -0.231394 -2.7204945 -0.07159196 0 0 Z " fill="#767A78" transform="translate(382,378)"/>
<path d="M0 0 C1.2065625 0.0309375 1.2065625 0.0309375 2.4375 0.0625 C2.46439216 1.54156892 2.48384621 3.02077483 2.5 4.5 C2.51160156 5.32371094 2.52320313 6.14742188 2.53515625 6.99609375 C2.4375 9.0625 2.4375 9.0625 1.4375 10.0625 C-0.22867115 10.10313832 -1.89638095 10.105221 -3.5625 10.0625 C-2.2425 9.4025 -0.9225 8.7425 0.4375 8.0625 C-0.8825 7.4025 -2.2025 6.7425 -3.5625 6.0625 C-3.605221 4.39638095 -3.60313832 2.72867115 -3.5625 1.0625 C-2.5625 0.0625 -2.5625 0.0625 0 0 Z " fill="#7A7E7C" transform="translate(302.5625,377.9375)"/>
<path d="M0 0 C1.65 0 3.3 0 5 0 C6 1 6 1 6.0625 3.5625 C6.041875 4.366875 6.02125 5.17125 6 6 C4.68 6.33 3.36 6.66 2 7 C2 7.99 2 8.98 2 10 C1.34 10 0.68 10 0 10 C0 6.7 0 3.4 0 0 Z " fill="#BFC6C4" transform="translate(205,284)"/>
<path d="M0 0 C0.66 0 1.32 0 2 0 C2 3.3 2 6.6 2 10 C0.35 10 -1.3 10 -3 10 C-4 9 -4 9 -4.0625 6.4375 C-4.041875 5.633125 -4.02125 4.82875 -4 4 C-2.68 3.67 -1.36 3.34 0 3 C0 2.01 0 1.02 0 0 Z " fill="#B0C4C4" transform="translate(238,281)"/>
<path d="M0 0 C0.66 0 1.32 0 2 0 C2 3.3 2 6.6 2 10 C0.35 10 -1.3 10 -3 10 C-4 9 -4 9 -4.0625 6.4375 C-4.041875 5.633125 -4.02125 4.82875 -4 4 C-2.68 3.67 -1.36 3.34 0 3 C0 2.01 0 1.02 0 0 Z " fill="#AEF6CC" transform="translate(739,169)"/>
<path d="M0 0 C1.65 0 3.3 0 5 0 C6 1 6 1 6.0625 3.5625 C6.041875 4.366875 6.02125 5.17125 6 6 C4.68 6.33 3.36 6.66 2 7 C2 7.99 2 8.98 2 10 C1.34 10 0.68 10 0 10 C0 6.7 0 3.4 0 0 Z " fill="#AEAAB0" transform="translate(519,175)"/>
<path d="M0 0 C2.97 0 5.94 0 9 0 C9 0.66 9 1.32 9 2 C8.01 2 7.02 2 6 2 C6 4.97 6 7.94 6 11 C5.01 11 4.02 11 3 11 C3 8.03 3 5.06 3 2 C2.01 2 1.02 2 0 2 C0 1.34 0 0.68 0 0 Z " fill="#F6F3E5" transform="translate(118,137)"/>
<path d="M0 0 C2.5 0.125 2.5 0.125 3.5 1.125 C3.54063832 2.79117115 3.542721 4.45888095 3.5 6.125 C1.5085944 6.50633299 -0.49279077 6.83825582 -2.5 7.125 C-3.5 6.125 -3.5 6.125 -3.625 3.625 C-3.45661291 0.25725827 -3.36774173 0.16838709 0 0 Z " fill="#85908E" transform="translate(415.5,377.875)"/>
<path d="M0 0 C2.5 0.125 2.5 0.125 3.5 1.125 C3.54063832 2.79117115 3.542721 4.45888095 3.5 6.125 C1.5085944 6.50633299 -0.49279077 6.83825582 -2.5 7.125 C-3.5 6.125 -3.5 6.125 -3.625 3.625 C-3.45661291 0.25725827 -3.36774173 0.16838709 0 0 Z " fill="#85908E" transform="translate(310.5,377.875)"/>
<path d="M0 0 C2.5 0.125 2.5 0.125 3.5 1.125 C3.54063832 2.79117115 3.542721 4.45888095 3.5 6.125 C1.5085944 6.50633299 -0.49279077 6.83825582 -2.5 7.125 C-3.5 6.125 -3.5 6.125 -3.625 3.625 C-3.45661291 0.25725827 -3.36774173 0.16838709 0 0 Z " fill="#85908E" transform="translate(214.5,377.875)"/>
<path d="M0 0 C0.33 0 0.66 0 1 0 C1 3.3 1 6.6 1 10 C-0.65 10 -2.3 10 -4 10 C-5 9 -5 9 -5.0625 6.4375 C-5.041875 5.633125 -5.02125 4.82875 -5 4 C-3.35 3.67 -1.7 3.34 0 3 C0 2.01 0 1.02 0 0 Z " fill="#777C78" transform="translate(369,375)"/>
<path d="M0 0 C0.33 0 0.66 0 1 0 C1 3.3 1 6.6 1 10 C-0.65 10 -2.3 10 -4 10 C-5 9 -5 9 -5.0625 6.4375 C-5.041875 5.633125 -5.02125 4.82875 -5 4 C-3.35 3.67 -1.7 3.34 0 3 C0 2.01 0 1.02 0 0 Z " fill="#767B7B" transform="translate(292,375)"/>
<path d="M0 0 C0.33 0 0.66 0 1 0 C1 3.3 1 6.6 1 10 C-0.65 10 -2.3 10 -4 10 C-5.125 5.25 -5.125 5.25 -4 3 C-2.68 3 -1.36 3 0 3 C0 2.01 0 1.02 0 0 Z " fill="#A3F7D2" transform="translate(147,281)"/>
<path d="M0 0 C0.33 0 0.66 0 1 0 C1 3.3 1 6.6 1 10 C-0.65 10 -2.3 10 -4 10 C-5.125 5.25 -5.125 5.25 -4 3 C-2.68 3 -1.36 3 0 3 C0 2.01 0 1.02 0 0 Z " fill="#A3F7D2" transform="translate(732,169)"/>
<path d="M0 0 C0.99 0 1.98 0 3 0 C3.99 3.3 4.98 6.6 6 10 C5.34 10 4.68 10 4 10 C3.67 9.34 3.34 8.68 3 8 C0.97536745 7.34786708 0.97536745 7.34786708 -1 7 C-1 7.99 -1 8.98 -1 10 C-1.66 10 -2.32 10 -3 10 C-2.01 6.7 -1.02 3.4 0 0 Z " fill="#E1FCE4" transform="translate(721,169)"/>
<path d="M0 0 C0.33 0.99 0.66 1.98 1 3 C2.81296615 3.62092718 2.81296615 3.62092718 5 4 C6.6744239 4.6469365 8.34302621 5.30959426 10 6 C10 6.66 10 7.32 10 8 C7.03 7.67 4.06 7.34 1 7 C1 8.65 1 10.3 1 12 C0.67 12 0.34 12 0 12 C0 8.04 0 4.08 0 0 Z " fill="#5C502D" transform="translate(471,42)"/>
<path d="M0 0 C0.78375 0.04125 1.5675 0.0825 2.375 0.125 C2.045 0.785 1.715 1.445 1.375 2.125 C0.715 2.125 0.055 2.125 -0.625 2.125 C-0.625 3.115 -0.625 4.105 -0.625 5.125 C0.365 5.125 1.355 5.125 2.375 5.125 C2.045 6.115 1.715 7.105 1.375 8.125 C-0.275 7.795 -1.925 7.465 -3.625 7.125 C-4.25 4.75 -4.25 4.75 -4.625 2.125 C-2.625 0.125 -2.625 0.125 0 0 Z " fill="#08E177" transform="translate(171.625,347.875)"/>
<path d="M0 0 C0.99 0 1.98 0 3 0 C3 0.66 3 1.32 3 2 C3.66 2 4.32 2 5 2 C5 2.66 5 3.32 5 4 C4.34 4 3.68 4 3 4 C3 5.32 3 6.64 3 8 C3.66 8 4.32 8 5 8 C5 8.66 5 9.32 5 10 C3.35 9.67 1.7 9.34 0 9 C-1.125 2.25 -1.125 2.25 0 0 Z " fill="#F0F0E7" transform="translate(133,138)"/>
<path d="M0 0 C1.67542976 0.28604898 3.34385343 0.61781233 5 1 C5 2.65 5 4.3 5 6 C3.34385343 6.38218767 1.67542976 6.71395102 0 7 C-1 6 -1 6 -1.125 3.5 C-1 1 -1 1 0 0 Z " fill="#717674" transform="translate(353,378)"/>
<path d="M0 0 C1.67542976 0.28604898 3.34385343 0.61781233 5 1 C5 2.65 5 4.3 5 6 C3.34385343 6.38218767 1.67542976 6.71395102 0 7 C-1 6 -1 6 -1.125 3.5 C-1 1 -1 1 0 0 Z " fill="#A2F5C3" transform="translate(151,284)"/>
<path d="M0 0 C1.67542976 0.28604898 3.34385343 0.61781233 5 1 C5 2.65 5 4.3 5 6 C3.34385343 6.38218767 1.67542976 6.71395102 0 7 C-1 6 -1 6 -1.125 3.5 C-1 1 -1 1 0 0 Z " fill="#A0F5CC" transform="translate(136,284)"/>
<path d="M0 0 C6.75 -0.125 6.75 -0.125 9 1 C8.67 2.32 8.34 3.64 8 5 C7.34 4.34 6.68 3.68 6 3 C3.93125966 2.3574765 3.93125966 2.3574765 2 2 C2.04125 3.11375 2.0825 4.2275 2.125 5.375 C2 9 2 9 0 11 C0 7.37 0 3.74 0 0 Z " fill="#FAFDFA" transform="translate(410,137)"/>
<path d="M0 0 C1.67542976 0.28604898 3.34385343 0.61781233 5 1 C5 2.65 5 4.3 5 6 C3.34385343 6.38218767 1.67542976 6.71395102 0 7 C-1 6 -1 6 -1.125 3.5 C-1 1 -1 1 0 0 Z " fill="#BAB9AE" transform="translate(188,284)"/>
<path d="M0 0 C1.67542976 0.28604898 3.34385343 0.61781233 5 1 C5 2.65 5 4.3 5 6 C3.35 6.33 1.7 6.66 0 7 C-0.38133299 5.0085944 -0.71325582 3.00720923 -1 1 C-0.67 0.67 -0.34 0.34 0 0 Z " fill="#B7B2B4" transform="translate(534,175)"/>
<path d="M0 0 C0.66 0 1.32 0 2 0 C2.66 0.99 3.32 1.98 4 3 C4.33 2.01 4.66 1.02 5 0 C5.66 0 6.32 0 7 0 C6.71872579 1.48117801 6.42466268 2.95993249 6.125 4.4375 C5.96257812 5.26121094 5.80015625 6.08492187 5.6328125 6.93359375 C5.42398437 7.61550781 5.21515625 8.29742187 5 9 C4.01 9.495 4.01 9.495 3 10 C2.34 8.68 1.68 7.36 1 6 C0.34 6 -0.32 6 -1 6 C-0.67 4.02 -0.34 2.04 0 0 Z " fill="#A6A4AF" transform="translate(422,172)"/>
<path d="M0 0 C0.33 0 0.66 0 1 0 C1 3.3 1 6.6 1 10 C-0.65 9.67 -2.3 9.34 -4 9 C-4 7.35 -4 5.7 -4 4 C-2.68 3.67 -1.36 3.34 0 3 C0 2.01 0 1.02 0 0 Z " fill="#B0ABAA" transform="translate(488,172)"/>
<path d="M0 0 C0.66 0 1.32 0 2 0 C2 0.99 2 1.98 2 3 C3.32 3.33 4.64 3.66 6 4 C6 5.98 6 7.96 6 10 C5.34 10 4.68 10 4 10 C4 8.02 4 6.04 4 4 C3.34 4 2.68 4 2 4 C2 5.98 2 7.96 2 10 C1.34 10 0.68 10 0 10 C0 6.7 0 3.4 0 0 Z " fill="#9C98A2" transform="translate(465,172)"/>
<path d="M0 0 C0.66 0 1.32 0 2 0 C2 0.99 2 1.98 2 3 C3.32 3.33 4.64 3.66 6 4 C6 5.98 6 7.96 6 10 C5.34 10 4.68 10 4 10 C4 8.02 4 6.04 4 4 C3.34 4 2.68 4 2 4 C2 5.98 2 7.96 2 10 C1.34 10 0.68 10 0 10 C0 6.7 0 3.4 0 0 Z " fill="#9C98A2" transform="translate(174,172)"/>
<path d="M0 0 C0 3.3 0 6.6 0 10 C-0.66 10 -1.32 10 -2 10 C-2 8.02 -2 6.04 -2 4 C-2.66 4 -3.32 4 -4 4 C-3.67 5.98 -3.34 7.96 -3 10 C-3.66 10 -4.32 10 -5 10 C-6.125 3.25 -6.125 3.25 -5 1 C-2 0 -2 0 0 0 Z " fill="#A09CA3" transform="translate(532,172)"/>
<path d="M0 0 C0.66 0 1.32 0 2 0 C2.33 1.32 2.66 2.64 3 4 C3.66 2.68 4.32 1.36 5 0 C5.66 0 6.32 0 7 0 C6.71872579 1.48117801 6.42466268 2.95993249 6.125 4.4375 C5.96257812 5.26121094 5.80015625 6.08492187 5.6328125 6.93359375 C5.42398438 7.61550781 5.21515625 8.29742187 5 9 C4.01 9.495 4.01 9.495 3 10 C2.34 8.68 1.68 7.36 1 6 C0.34 6 -0.32 6 -1 6 C-0.67 4.02 -0.34 2.04 0 0 Z " fill="#A6A2AC" transform="translate(131,172)"/>
<path d="M0 0 C3.63 0 7.26 0 11 0 C11 0.99 11 1.98 11 3 C7.37 3 3.74 3 0 3 C0 2.01 0 1.02 0 0 Z " fill="#636969" transform="translate(667,352)"/>
<path d="M0 0 C1.65 0 3.3 0 5 0 C5 2.31 5 4.62 5 7 C4.01 7.495 4.01 7.495 3 8 C2.67 7.34 2.34 6.68 2 6 C1.01 6.495 1.01 6.495 0 7 C0 4.69 0 2.38 0 0 Z " fill="#06E176" transform="translate(462,343)"/>
<path d="M0 0 C1.65 0.33 3.3 0.66 5 1 C5 2.98 5 4.96 5 7 C3.02 7 1.04 7 -1 7 C-0.67 5.68 -0.34 4.36 0 3 C0.99 3 1.98 3 3 3 C3 2.34 3 1.68 3 1 C2.01 1.33 1.02 1.66 0 2 C0 1.34 0 0.68 0 0 Z " fill="#838884" transform="translate(316,378)"/>
<path d="M0 0 C0.99 0 1.98 0 3 0 C3 2.64 3 5.28 3 8 C2.01 8 1.02 8 0 8 C0 7.34 0 6.68 0 6 C-0.66 6 -1.32 6 -2 6 C-2 4.68 -2 3.36 -2 2 C-1.34 2 -0.68 2 0 2 C0 1.34 0 0.68 0 0 Z " fill="#96B0BF" transform="translate(471,140)"/>
<path d="M0 0 C1.99954746 -0.04254356 4.00041636 -0.04080783 6 0 C7 1 7 1 7.0625 4.0625 C7.041875 5.031875 7.02125 6.00125 7 7 C6.34 7 5.68 7 5 7 C5 5.02 5 3.04 5 1 C4.01 1.495 4.01 1.495 3 2 C2.34444881 4.52733235 2.34444881 4.52733235 2 7 C1.34 7 0.68 7 0 7 C0 4.69 0 2.38 0 0 Z " fill="#85887F" transform="translate(339,378)"/>
<path d="M0 0 C2.0625 0.4375 2.0625 0.4375 4 1 C4 2.65 4 4.3 4 6 C2.0625 6.5625 2.0625 6.5625 0 7 C-1 6 -1 6 -1.125 3.5 C-1 1 -1 1 0 0 Z " fill="#3D5B4D" transform="translate(530,346)"/>
<path d="M0 0 C2.0625 0.4375 2.0625 0.4375 4 1 C4 2.65 4 4.3 4 6 C2.0625 6.5625 2.0625 6.5625 0 7 C-1 6 -1 6 -1.125 3.5 C-1 1 -1 1 0 0 Z " fill="#3B5A4C" transform="translate(494,346)"/>
<path d="M0 0 C2.0625 0.4375 2.0625 0.4375 4 1 C4 2.65 4 4.3 4 6 C2.0625 6.5625 2.0625 6.5625 0 7 C-1 6 -1 6 -1.125 3.5 C-1 1 -1 1 0 0 Z " fill="#3D5249" transform="translate(428,346)"/>
<path d="M0 0 C2.0625 0.4375 2.0625 0.4375 4 1 C4 2.65 4 4.3 4 6 C2.0625 6.5625 2.0625 6.5625 0 7 C-1 6 -1 6 -1.125 3.5 C-1 1 -1 1 0 0 Z " fill="#3D5C4D" transform="translate(365,346)"/>
<path d="M0 0 C2.0625 0.4375 2.0625 0.4375 4 1 C4 2.65 4 4.3 4 6 C2.0625 6.5625 2.0625 6.5625 0 7 C-1 6 -1 6 -1.125 3.5 C-1 1 -1 1 0 0 Z " fill="#3D5249" transform="translate(286,346)"/>
<path d="M0 0 C1.67542976 0.28604898 3.34385343 0.61781233 5 1 C5 1.99 5 2.98 5 4 C4.01 4.495 4.01 4.495 3 5 C3.66 5.33 4.32 5.66 5 6 C3.34385343 6.38218767 1.67542976 6.71395102 0 7 C-1 6 -1 6 -1.125 3.5 C-1 1 -1 1 0 0 Z " fill="#D7D4C5" transform="translate(228,284)"/>
<path d="M0 0 C1.67542976 0.28604898 3.34385343 0.61781233 5 1 C5 1.99 5 2.98 5 4 C4.01 4.495 4.01 4.495 3 5 C3.66 5.33 4.32 5.66 5 6 C3.34385343 6.38218767 1.67542976 6.71395102 0 7 C-1 6 -1 6 -1.125 3.5 C-1 1 -1 1 0 0 Z " fill="#D7D4C5" transform="translate(217,284)"/>
<path d="M0 0 C1.67542976 0.28604898 3.34385343 0.61781233 5 1 C5 1.99 5 2.98 5 4 C4.01 4.495 4.01 4.495 3 5 C3.66 5.33 4.32 5.66 5 6 C3.34385343 6.38218767 1.67542976 6.71395102 0 7 C-1 6 -1 6 -1.125 3.5 C-1 1 -1 1 0 0 Z " fill="#A49C9E" transform="translate(492,175)"/>
<path d="M0 0 C1.67542976 0.28604898 3.34385343 0.61781233 5 1 C5 1.99 5 2.98 5 4 C4.01 4.495 4.01 4.495 3 5 C3.66 5.33 4.32 5.66 5 6 C3.34385343 6.38218767 1.67542976 6.71395102 0 7 C-1 6 -1 6 -1.125 3.5 C-1 1 -1 1 0 0 Z " fill="#A49C9E" transform="translate(235,175)"/>
<path d="M0 0 C0.66 0 1.32 0 2 0 C2 2.64 2 5.28 2 8 C1.34 8 0.68 8 0 8 C0 7.34 0 6.68 0 6 C-1.32 5.67 -2.64 5.34 -4 5 C-3.67 4.01 -3.34 3.02 -3 2 C-2.01 2 -1.02 2 0 2 C0 1.34 0 0.68 0 0 Z " fill="#5C6966" transform="translate(443,140)"/>
<path d="M0 0 C1.67542976 0.28604898 3.34385343 0.61781233 5 1 C5 1.99 5 2.98 5 4 C3.68 4.33 2.36 4.66 1 5 C1.99 5.66 2.98 6.32 4 7 C2.35 6.67 0.7 6.34 -1 6 C-1.042721 4.33388095 -1.04063832 2.66617115 -1 1 C-0.67 0.67 -0.34 0.34 0 0 Z " fill="#878984" transform="translate(151,378)"/>
<path d="M0 0 C2.475 0.495 2.475 0.495 5 1 C5 2.98 5 4.96 5 7 C3.35 7 1.7 7 0 7 C0.33 5.68 0.66 4.36 1 3 C1.66 3 2.32 3 3 3 C3 2.34 3 1.68 3 1 C2.01 1.33 1.02 1.66 0 2 C0 1.34 0 0.68 0 0 Z " fill="#828987" transform="translate(392,378)"/>
<path d="M0 0 C-1.59092052 4.13639336 -4.60474918 7.23213248 -8 10 C-8.66 10 -9.32 10 -10 10 C-8.50006099 6.10015857 -4.53875449 0 0 0 Z " fill="#3E4C49" transform="translate(753,362)"/>
<path d="M0 0 C0.99 0 1.98 0 3 0 C3.33 0.66 3.66 1.32 4 2 C4.66 1.34 5.32 0.68 6 0 C5.67 1.65 5.34 3.3 5 5 C3.35 5.33 1.7 5.66 0 6 C0 4.02 0 2.04 0 0 Z " fill="#ABA5A0" transform="translate(479,142)"/>
<path d="M0 0 C1.65 0 3.3 0 5 0 C5 2.31 5 4.62 5 7 C3.35 7 1.7 7 0 7 C0.33 5.68 0.66 4.36 1 3 C1.99 3 2.98 3 4 3 C4 2.34 4 1.68 4 1 C2.68 1.33 1.36 1.66 0 2 C0 1.34 0 0.68 0 0 Z " fill="#848988" transform="translate(272,378)"/>
<path d="M0 0 C1.65 0 3.3 0 5 0 C5 2.31 5 4.62 5 7 C3.35 7 1.7 7 0 7 C0.33 5.68 0.66 4.36 1 3 C1.99 3 2.98 3 4 3 C4 2.34 4 1.68 4 1 C2.68 1.33 1.36 1.66 0 2 C0 1.34 0 0.68 0 0 Z " fill="#848988" transform="translate(255,378)"/>
<path d="M0 0 C1.32 0 2.64 0 4 0 C3.34 2.64 2.68 5.28 2 8 C0.4375 6.8125 0.4375 6.8125 -1 5 C-0.6875 2.3125 -0.6875 2.3125 0 0 Z " fill="#0DD36D" transform="translate(341,343)"/>
<path d="M0 0 C0.99 0.33 1.98 0.66 3 1 C3.33 2.65 3.66 4.3 4 6 C2.68 6 1.36 6 0 6 C-0.33 7.32 -0.66 8.64 -1 10 C-1.09978121 6.50765756 -0.77842938 3.40562852 0 0 Z " fill="#A8A38B" transform="translate(459,142)"/>
<path d="M0 0 C0.99 0.99 1.98 1.98 3 3 C3.99 2.01 4.98 1.02 6 0 C5.01 2.97 4.02 5.94 3 9 C2.01 9 1.02 9 0 9 C0.185625 8.443125 0.37125 7.88625 0.5625 7.3125 C1.07551165 4.600867 0.6640724 2.65628961 0 0 Z " fill="#848D8A" transform="translate(204,378)"/>
<path d="M0 0 C1.32 0 2.64 0 4 0 C3.34 2.97 2.68 5.94 2 9 C1.34 8.67 0.68 8.34 0 8 C0 5.36 0 2.72 0 0 Z " fill="#05E073" transform="translate(470,343)"/>
<path d="M0 0 C1.65 0.33 3.3 0.66 5 1 C4.67 2.98 4.34 4.96 4 7 C2.35 6.67 0.7 6.34 -1 6 C-0.34 5.67 0.32 5.34 1 5 C1.66 5.33 2.32 5.66 3 6 C3 5.34 3 4.68 3 4 C1.68 3.67 0.36 3.34 -1 3 C-0.67 2.01 -0.34 1.02 0 0 Z " fill="#A19DA3" transform="translate(499,175)"/>
<path d="M0 0 C1.32 0 2.64 0 4 0 C4 0.66 4 1.32 4 2 C3.01 2.33 2.02 2.66 1 3 C1 3.66 1 4.32 1 5 C1.99 5.33 2.98 5.66 4 6 C4 6.66 4 7.32 4 8 C2.35 8 0.7 8 -1 8 C-1.04241723 5.66705225 -1.04092937 3.33297433 -1 1 C-0.67 0.67 -0.34 0.34 0 0 Z " fill="#FAFAF4" transform="translate(439,140)"/>
<path d="M0 0 C1.67542976 0.28604898 3.34385343 0.61781233 5 1 C5 1.99 5 2.98 5 4 C3.35 4 1.7 4 0 4 C-0.33 4.66 -0.66 5.32 -1 6 C-1.042721 4.33388095 -1.04063832 2.66617115 -1 1 C-0.67 0.67 -0.34 0.34 0 0 Z " fill="#84837D" transform="translate(249,378)"/>
<path d="M0 0 C0.99 0.33 1.98 0.66 3 1 C3 2.65 3 4.3 3 6 C1.68 6 0.36 6 -1 6 C-1.042721 4.33388095 -1.04063832 2.66617115 -1 1 C-0.67 0.67 -0.34 0.34 0 0 Z " fill="#404C49" transform="translate(546,346)"/>
<path d="M0 0 C1.98 0.495 1.98 0.495 4 1 C4 2.98 4 4.96 4 7 C2.35 7 0.7 7 -1 7 C-0.67 6.34 -0.34 5.68 0 5 C0.99 5.33 1.98 5.66 3 6 C3 5.34 3 4.68 3 4 C1.68 3.67 0.36 3.34 -1 3 C-0.67 2.01 -0.34 1.02 0 0 Z " fill="#9D99A1" transform="translate(452,175)"/>
<path d="M0 0 C0.66 0 1.32 0 2 0 C2.66 2.64 3.32 5.28 4 8 C2.02 8.99 2.02 8.99 0 10 C0 6.7 0 3.4 0 0 Z " fill="#9D9798" transform="translate(210,172)"/>
<path d="M0 0 C1.98 0.495 1.98 0.495 4 1 C4 2.98 4 4.96 4 7 C2.35 7 0.7 7 -1 7 C-0.67 6.34 -0.34 5.68 0 5 C0.99 5.33 1.98 5.66 3 6 C3 5.34 3 4.68 3 4 C1.68 3.67 0.36 3.34 -1 3 C-0.67 2.01 -0.34 1.02 0 0 Z " fill="#9D99A1" transform="translate(161,175)"/>
<path d="M0 0 C0.99 0 1.98 0 3 0 C3 2.64 3 5.28 3 8 C2.01 8 1.02 8 0 8 C0 5.36 0 2.72 0 0 Z " fill="#F0EDDA" transform="translate(128,140)"/>
<path d="M0 0 C1.32 0.33 2.64 0.66 4 1 C3.67 2.65 3.34 4.3 3 6 C2.01 6.33 1.02 6.66 0 7 C0 4.69 0 2.38 0 0 Z " fill="#353E51" transform="translate(413,139)"/>
<path d="M0 0 C0.433125 0.639375 0.86625 1.27875 1.3125 1.9375 C2.91239177 4.26746003 2.91239177 4.26746003 6 5 C6 5.66 6 6.32 6 7 C4.68 7 3.36 7 2 7 C1.34 7.99 0.68 8.98 0 10 C-0.95024979 6.30458414 -0.95024979 3.69541586 0 0 Z " fill="#3F7054" transform="translate(374,346)"/>
<path d="M0 0 C2.475 0.495 2.475 0.495 5 1 C5 2.98 5 4.96 5 7 C3.35 7 1.7 7 0 7 C0.99 6.67 1.98 6.34 3 6 C3 5.34 3 4.68 3 4 C2.01 3.67 1.02 3.34 0 3 C0.99 3 1.98 3 3 3 C3 2.34 3 1.68 3 1 C2.01 1.33 1.02 1.66 0 2 C0 1.34 0 0.68 0 0 Z " fill="#8A8A93" transform="translate(438,175)"/>
<path d="M0 0 C2.475 0.495 2.475 0.495 5 1 C5 2.98 5 4.96 5 7 C3.35 7 1.7 7 0 7 C0.99 6.67 1.98 6.34 3 6 C3 5.34 3 4.68 3 4 C2.01 3.67 1.02 3.34 0 3 C0.99 3 1.98 3 3 3 C3 2.34 3 1.68 3 1 C2.01 1.33 1.02 1.66 0 2 C0 1.34 0 0.68 0 0 Z " fill="#8A8A93" transform="translate(197,175)"/>
<path d="M0 0 C2.475 0.495 2.475 0.495 5 1 C5 2.98 5 4.96 5 7 C3.35 7 1.7 7 0 7 C0.99 6.67 1.98 6.34 3 6 C3 5.34 3 4.68 3 4 C2.01 3.67 1.02 3.34 0 3 C0.99 3 1.98 3 3 3 C3 2.34 3 1.68 3 1 C2.01 1.33 1.02 1.66 0 2 C0 1.34 0 0.68 0 0 Z " fill="#8A8A93" transform="translate(147,175)"/>
<path d="M0 0 C0.66 0.33 1.32 0.66 2 1 C2 3.31 2 5.62 2 8 C1.01 8 0.02 8 -1 8 C-1.04241723 5.66705225 -1.04092937 3.33297433 -1 1 C-0.67 0.67 -0.34 0.34 0 0 Z " fill="#CDEBF0" transform="translate(492,140)"/>
<path d="M0 0 C1.32 0 2.64 0 4 0 C4 2.31 4 4.62 4 7 C2.68 6.67 1.36 6.34 0 6 C0.99 6 1.98 6 3 6 C3 5.34 3 4.68 3 4 C2.01 3.67 1.02 3.34 0 3 C0 2.01 0 1.02 0 0 Z " fill="#81857F" transform="translate(456,378)"/>
<path d="M0 0 C1.32 0 2.64 0 4 0 C4 2.31 4 4.62 4 7 C2.68 6.67 1.36 6.34 0 6 C0.99 6 1.98 6 3 6 C3 5.34 3 4.68 3 4 C2.01 3.67 1.02 3.34 0 3 C0 2.01 0 1.02 0 0 Z " fill="#81857F" transform="translate(326,378)"/>
<path d="M0 0 C1.32 0 2.64 0 4 0 C4 2.31 4 4.62 4 7 C2.68 6.67 1.36 6.34 0 6 C0.99 6 1.98 6 3 6 C3 5.34 3 4.68 3 4 C2.01 3.67 1.02 3.34 0 3 C0 2.01 0 1.02 0 0 Z " fill="#81857F" transform="translate(262,378)"/>
<path d="M0 0 C0.66 0 1.32 0 2 0 C3.06546953 3.1964086 3.07427838 5.65747276 3 9 C2.01 9 1.02 9 0 9 C-1.125 2.25 -1.125 2.25 0 0 Z " fill="#D9E4DF" transform="translate(223,282)"/>
<path d="M0 0 C0.66 0 1.32 0 2 0 C3.06546953 3.1964086 3.07427838 5.65747276 3 9 C2.01 8.67 1.02 8.34 0 8 C-1.125 2.25 -1.125 2.25 0 0 Z " fill="#8A8E8A" transform="translate(432,376)"/>
<path d="M0 0 C0.66 0 1.32 0 2 0 C3.06546953 3.1964086 3.07427838 5.65747276 3 9 C2.01 8.67 1.02 8.34 0 8 C-1.125 2.25 -1.125 2.25 0 0 Z " fill="#858E8E" transform="translate(347,376)"/>
<path d="M0 0 C2 3 2 3 1.625 5.6875 C1.41875 6.450625 1.2125 7.21375 1 8 C1.66 8 2.32 8 3 8 C3 6.02 3 4.04 3 2 C3.33 2 3.66 2 4 2 C4 4.31 4 6.62 4 9 C2.68 9 1.36 9 0 9 C-1.125 2.25 -1.125 2.25 0 0 Z " fill="#AA8A7A" transform="translate(221,173)"/>
<path d="M0 0 C0.33 0 0.66 0 1 0 C1 3.96 1 7.92 1 12 C0.67 11.34 0.34 10.68 0 10 C-0.66 10 -1.32 10 -2 10 C-2 8.68 -2 7.36 -2 6 C-1.34 6 -0.68 6 0 6 C0 4.02 0 2.04 0 0 Z " fill="#356A8E" transform="translate(138,136)"/>
<path d="M0 0 C0.66 0 1.32 0 2 0 C1.67 1.32 1.34 2.64 1 4 C1.99 4 2.98 4 4 4 C4 4.66 4 5.32 4 6 C2.35 6 0.7 6 -1 6 C-1.042721 4.33388095 -1.04063832 2.66617115 -1 1 C-0.67 0.67 -0.34 0.34 0 0 Z " fill="#07D273" transform="translate(742,368)"/>
<path d="M0 0 C1.98 0.495 1.98 0.495 4 1 C4 1.99 4 2.98 4 4 C2.35 4.33 0.7 4.66 -1 5 C-0.67 3.35 -0.34 1.7 0 0 Z " fill="#249B5E" transform="translate(515,348)"/>
<path d="M0 0 C1.98 0.495 1.98 0.495 4 1 C4 1.99 4 2.98 4 4 C2.35 4.33 0.7 4.66 -1 5 C-0.67 3.35 -0.34 1.7 0 0 Z " fill="#249B5E" transform="translate(217,348)"/>
<path d="M0 0 C0.66 0 1.32 0 2 0 C3.06546953 3.1964086 3.07427838 5.65747276 3 9 C2.01 8.67 1.02 8.34 0 8 C0 5.36 0 2.72 0 0 Z " fill="#A09499" transform="translate(461,173)"/>
<path d="M0 0 C0.66 0 1.32 0 2 0 C3.06546953 3.1964086 3.07427838 5.65747276 3 9 C2.01 8.67 1.02 8.34 0 8 C0 5.36 0 2.72 0 0 Z " fill="#A09499" transform="translate(170,173)"/>
<path d="M0 0 C0.99 0 1.98 0 3 0 C3 1.65 3 3.3 3 5 C1.68 4.67 0.36 4.34 -1 4 C-0.67 2.68 -0.34 1.36 0 0 Z " fill="#514E4C" transform="translate(414,379)"/>
<path d="M0 0 C0.99 0 1.98 0 3 0 C3 1.65 3 3.3 3 5 C1.68 4.67 0.36 4.34 -1 4 C-0.67 2.68 -0.34 1.36 0 0 Z " fill="#514E4C" transform="translate(309,379)"/>
<path d="M0 0 C0.99 0 1.98 0 3 0 C3 1.65 3 3.3 3 5 C1.68 4.67 0.36 4.34 -1 4 C-0.67 2.68 -0.34 1.36 0 0 Z " fill="#514E4C" transform="translate(213,379)"/>
<path d="M0 0 C0.66 0.66 1.32 1.32 2 2 C2.66 1.67 3.32 1.34 4 1 C3.34 3.64 2.68 6.28 2 9 C1.67 7.68 1.34 6.36 1 5 C0.34 5 -0.32 5 -1 5 C-0.67 3.35 -0.34 1.7 0 0 Z " fill="#18C165" transform="translate(461,347)"/>
<path d="M0 0 C0.33 0 0.66 0 1 0 C0.67 2.97 0.34 5.94 0 9 C-0.66 8.34 -1.32 7.68 -2 7 C-1.43181818 1.43181818 -1.43181818 1.43181818 0 0 Z " fill="#00E374" transform="translate(153,344)"/>
<path d="M0 0 C1.32 0.33 2.64 0.66 4 1 C3.34 3.97 2.68 6.94 2 10 C1.67 10 1.34 10 1 10 C0.67 6.7 0.34 3.4 0 0 Z " fill="#ADB5C0" transform="translate(224,172)"/>
<path d="M0 0 C0.99 0 1.98 0 3 0 C3 1.98 3 3.96 3 6 C2.01 6 1.02 6 0 6 C-1.125 2.25 -1.125 2.25 0 0 Z " fill="#84F3BE" transform="translate(721,169)"/>
</svg>
